0
SECTION
2
HEADER
9
$INSUNITS
70
4
9
$ACADVER
1
AC1014
9
$HANDSEED
5
FFFF
0
ENDSEC
0
SECTION
2
TABLES
0
TABLE
2
VPORT
5
8
100
AcDbSymbolTable
0
ENDTAB
0
TABLE
2
LTYPE
5
5
100
AcDbSymbolTable
0
LTYPE
5
14
100
AcDbSymbolTableRecord
100
AcDbLinetypeTableRecord
2
BYBLOCK
70
0
0
LTYPE
5
15
100
AcDbSymbolTableRecord
100
AcDbLinetypeTableRecord
2
BYLAYER
70
0
0
ENDTAB
0
TABLE
2
LAYER
5
2
100
AcDbSymbolTable
70
2
0
LAYER
5
50
100
AcDbSymbolTableRecord
100
AcDbLayerTableRecord
2
0
70
0
6
CONTINUOUS
0
ENDTAB
0
TABLE
2
STYLE
5
3
100
AcDbSymbolTable
70
1
0
STYLE
5
11
100
AcDbSymbolTableRecord
100
AcDbTextStyleTableRecord
2
STANDARD
70
0
0
ENDTAB
0
TABLE
2
VIEW
5
6
100
AcDbSymbolTable
70
0
0
ENDTAB
0
TABLE
2
UCS
5
7
100
AcDbSymbolTable
70
0
0
ENDTAB
0
TABLE
2
APPID
5
9
100
AcDbSymbolTable
70
2
0
APPID
5
12
100
AcDbSymbolTableRecord
100
AcDbRegAppTableRecord
2
ACAD
70
0
0
ENDTAB
0
TABLE
2
DIMSTYLE
5
A
100
AcDbSymbolTable
70
1
0
ENDTAB
0
TABLE
2
BLOCK_RECORD
5
1
100
AcDbSymbolTable
70
1
0
BLOCK_RECORD
5
1F
100
AcDbSymbolTableRecord
100
AcDbBlockTableRecord
2
*MODEL_SPACE
0
BLOCK_RECORD
5
1B
100
AcDbSymbolTableRecord
100
AcDbBlockTableRecord
2
*PAPER_SPACE
0
ENDTAB
0
ENDSEC
0
SECTION
2
BLOCKS
0
BLOCK
5
20
100
AcDbEntity
100
AcDbBlockBegin
2
*MODEL_SPACE
0
ENDBLK
5
21
100
AcDbEntity
100
AcDbBlockEnd
0
BLOCK
5
1C
100
AcDbEntity
100
AcDbBlockBegin
2
*PAPER_SPACE
0
ENDBLK
5
1D
100
AcDbEntity
100
AcDbBlockEnd
0
ENDSEC
0
SECTION
2
ENTITIES
0
LWPOLYLINE
5
100
100
AcDbEntity
8
0
100
AcDbPolyline
90
16
70
1
43
0.0
10
13.152919991877226
20
138.79624798779747
42
-0.55841137804278396
10
19.888453131076922
20
130.33838210936756
42
0.17434650313332534
10
19.782399766907783
20
0.019018246222313351
42
-0.5190883197035685
10
13.805303000093154
20
-8.474999999999941
10
-114.22073775786168
20
-8.4749999999999925
42
0.19891236737965839
10
-118.71086581839629
20
-10.334871939465412
10
-143.34112184938601
20
-34.965127970455242
42
-0.19891237259351008
10
-147.83124999999995
20
-36.825000000000031
10
-199.83124981956851
20
-36.825000000000053
42
-0.19891235750219177
10
-204.32137776229794
20
-34.965128358771224
10
-228.95163418160379
20
-10.334871939465447
42
0.19891236737965753
10
-233.44176224213837
20
-8.4750000000000298
10
-361.46780300009334
20
-8.4750000000001098
42
-0.51908831970357106
10
-367.44489976690795
20
0.019018246222177737
42
0.17434650313332692
10
-367.55095313107677
20
130.33838210936776
42
-0.55841137804277208
10
-360.81541999187806
20
138.79624798779673
42
0.060212305610076886
0
CIRCLE
5
101
100
AcDbEntity
8
0
100
AcDbCircle
10
-173.83124999999995
20
-21.825000000000017
30
0
40
6.25
210
0
220
-0
230
1
0
CIRCLE
5
102
100
AcDbEntity
8
0
100
AcDbCircle
10
-231.93333333333334
20
-4.4750000000000068
30
0
40
2.1499999999999986
210
0
220
-0
230
1
0
LWPOLYLINE
5
103
100
AcDbEntity
8
0
100
AcDbPolyline
90
24
70
1
43
0.0
10
-0.52499999999996239
20
119.53749999999994
42
-0.41421356237309848
10
0.47500000000004755
20
118.53749999999994
10
0.47500000000008036
20
24.337499999999999
42
-0.41421356237309293
10
-0.52499999999991331
20
23.337499999999999
10
-285.22499999999997
20
23.337499999999945
42
-0.41421356237307555
10
-286.22499999999997
20
24.337499999999963
10
-286.22499999999997
20
118.53749999999992
42
-0.41421356237310025
10
-285.22499999999997
20
119.53749999999992
10
-257.70000000000005
20
119.53749999999994
42
-0.41421356237307944
10
-256.69999999999999
20
118.53749999999991
10
-256.69999999999999
20
100.98749999999995
42
0.41421356237312623
10
-256.19999999999993
20
100.48749999999993
10
-239.10000000000002
20
100.48749999999995
42
0.41421356237310542
10
-238.60000000000008
20
100.98749999999995
10
-238.59999999999999
20
118.53749999999992
42
-0.41421356237310025
10
-237.60000000000002
20
119.53749999999992
10
-48.150000000000013
20
119.53749999999992
42
-0.41421356237309243
10
-47.150000000000034
20
118.53749999999994
10
-47.15000000000002
20
100.98750000000003
42
0.41421356237310542
10
-46.65000000000002
20
100.48750000000001
10
-29.550000000000015
20
100.48750000000001
42
0.41421356237310542
10
-29.050000000000026
20
100.98750000000003
10
-29.050000000000008
20
118.53749999999997
42
-0.41421356237309503
10
-28.050000000000011
20
119.53749999999997
0
LWPOLYLINE
5
104
100
AcDbEntity
8
0
100
AcDbPolyline
90
16
70
1
43
0.0
10
-328.08749999999998
20
80.48749999999977
42
-0.41421356237313667
10
-329.08749999999998
20
81.487499999999784
10
-329.08749999999998
20
99.037499999999909
42
0.4142135623730534
10
-329.58749999999998
20
99.537499999999966
10
-347.13749999999999
20
99.537499999999923
42
-0.41421356237313667
10
-348.13749999999999
20
100.53749999999994
10
-348.13749999999999
20
118.53749999999992
42
-0.4142135623730222
10
-347.13750000000005
20
119.53749999999992
10
-291.03750000000002
20
119.53749999999994
42
-0.41421356237310025
10
-290.03750000000002
20
118.53749999999991
10
-290.03750000000002
20
100.53749999999992
42
-0.41421356237308982
10
-291.03750000000002
20
99.537499999999923
10
-308.58749999999998
20
99.537499999999923
42
0.41421356237313667
10
-309.08749999999998
20
99.037499999999909
10
-309.08749999999998
20
81.48749999999977
42
-0.41421356237308982
10
-310.08749999999998
20
80.48749999999977
0
LWPOLYLINE
5
105
100
AcDbEntity
8
0
100
AcDbPolyline
90
8
70
1
43
0.0
10
-291.03750000000002
20
19.524999999999931
42
-0.4142135623730937
10
-290.03750000000002
20
18.52499999999992
10
-290.03750000000002
20
0.52499999999996683
42
-0.41421356237310603
10
-291.03750000000002
20
-0.47500000000003423
10
-347.13749999999999
20
-0.47500000000004416
42
-0.41421356237313306
10
-348.13749999999999
20
0.52499999999995772
10
-348.13749999999999
20
18.524999999999913
42
-0.41421356237302481
10
-347.13750000000005
20
19.524999999999913
0
LWPOLYLINE
5
106
100
AcDbEntity
8
0
100
AcDbPolyline
90
8
70
1
43
0.0
10
-210.07499999999999
20
19.524999999999938
42
-0.4142135623730937
10
-209.07499999999999
20
18.524999999999928
10
-209.07499999999996
20
0.5249999999999756
42
-0.41421356237310536
10
-210.07499999999999
20
-0.47500000000002529
10
-285.22499999999997
20
-0.47500000000004566
42
-0.41421356237307372
10
-286.22499999999997
20
0.5249999999999666
10
-286.22499999999997
20
18.52499999999992
42
-0.41421356237307422
10
-285.22499999999997
20
19.52499999999992
0
LWPOLYLINE
5
107
100
AcDbEntity
8
0
100
AcDbPolyline
90
8
70
1
43
0.0
10
-113.77500000000003
20
-0.47500000000000958
42
-0.41421356237309431
10
-114.77500000000003
20
0.52499999999998437
10
-114.77500000000001
20
18.524999999999942
42
-0.41421356237309631
10
-113.77500000000001
20
19.524999999999942
10
-38.625000000000007
20
19.524999999999952
42
-0.41421356237309243
10
-37.625000000000007
20
18.524999999999952
10
-37.625
20
0.52499999999999347
42
-0.41421356237309559
10
-38.625
20
-0.47500000000000314
0
LWPOLYLINE
5
108
100
AcDbEntity
8
0
100
AcDbPolyline
90
8
70
1
43
0.0
10
-124.34999999999999
20
19.524999999999942
42
-0.41421356237309764
10
-123.34999999999999
20
18.524999999999938
10
-123.34999999999999
20
0.52499999999998448
42
-0.41421356237309687
10
-124.34999999999999
20
-0.47500000000001641
10
-199.50000000000003
20
-0.47500000000003662
42
-0.41421356237309442
10
-200.50000000000006
20
0.52499999999997549
10
-200.50000000000006
20
18.524999999999928
42
-0.41421356237309503
10
-199.50000000000003
20
19.524999999999931
0
LWPOLYLINE
5
109
100
AcDbEntity
8
0
100
AcDbPolyline
90
8
70
1
43
0.0
10
-291.03750000000002
20
62.387499999999953
42
-0.41421356237309503
10
-290.03750000000002
20
61.387499999999939
10
-290.03750000000002
20
24.337499999999967
42
-0.41421356237310675
10
-291.03750000000002
20
23.337499999999967
10
-347.13749999999999
20
23.337499999999949
42
-0.41421356237313406
10
-348.13749999999999
20
24.337499999999956
10
-348.13750000000005
20
61.387499999999932
42
-0.41421356237304563
10
-347.13750000000005
20
62.387499999999925
0
LWPOLYLINE
5
110
100
AcDbEntity
8
0
100
AcDbPolyline
90
8
70
1
43
0.0
10
-0.5249999999999535
20
19.524999999999956
42
-0.41421356237310442
10
0.47500000000007869
20
18.524999999999956
10
0.4750000000000788
20
0.52500000000000224
42
-0.41421356237309659
10
-0.52499999999991775
20
-0.47499999999999881
10
-18.524999999999999
20
-0.47500000000000442
42
-0.41421356237309415
10
-19.525000000000002
20
0.52499999999999769
10
-19.524999999999999
20
18.524999999999956
42
-0.41421356237309825
10
-18.524999999999995
20
19.524999999999956
0
CIRCLE
5
111
100
AcDbEntity
8
0
100
AcDbCircle
10
0.47500000000002984
20
123.5374999999998
30
0
40
2.1499999999999986
210
0
220
-0
230
1
0
CIRCLE
5
112
100
AcDbEntity
8
0
100
AcDbCircle
10
-348.13749999999999
20
123.53750000000173
30
0
40
2.1499999999999986
210
0
220
-0
230
1
0
CIRCLE
5
113
100
AcDbEntity
8
0
100
AcDbCircle
10
-115.72916666666666
20
123.53750000000164
30
0
40
2.1499999999999986
210
0
220
-0
230
1
0
CIRCLE
5
114
100
AcDbEntity
8
0
100
AcDbCircle
10
0.47500000000002984
20
-4.4750000000000068
30
0
40
2.1499999999999986
210
0
220
-0
230
1
0
CIRCLE
5
115
100
AcDbEntity
8
0
100
AcDbCircle
10
-348.13749999999999
20
-4.4750000000000068
30
0
40
2.1499999999999986
210
0
220
-0
230
1
0
CIRCLE
5
116
100
AcDbEntity
8
0
100
AcDbCircle
10
-231.93333333333334
20
123.53750000000169
30
0
40
2.1499999999999986
210
0
220
-0
230
1
0
CIRCLE
5
117
100
AcDbEntity
8
0
100
AcDbCircle
10
-115.72916666666666
20
-4.4750000000000068
30
0
40
2.1499999999999986
210
0
220
-0
230
1
0
ENDSEC
0
SECTION
2
OBJECTS
0
DICTIONARY
5
C
100
AcDbDictionary
3
ACAD_GROUP
350
D
3
ACAD_MLINESTYLE
350
17
0
DICTIONARY
5
D
100
AcDbDictionary
0
DICTIONARY
5
1A
330
C
100
AcDbDictionary
0
DICTIONARY
5
17
100
AcDbDictionary
0
ENDSEC
0
EOF
