0
SECTION
2
HEADER
9
$INSUNITS
70
4
9
$ACADVER
1
AC1014
9
$HANDSEED
5
FFFF
0
ENDSEC
0
SECTION
2
TABLES
0
TABLE
2
VPORT
5
8
100
AcDbSymbolTable
0
ENDTAB
0
TABLE
2
LTYPE
5
5
100
AcDbSymbolTable
0
LTYPE
5
14
100
AcDbSymbolTableRecord
100
AcDbLinetypeTableRecord
2
BYBLOCK
70
0
0
LTYPE
5
15
100
AcDbSymbolTableRecord
100
AcDbLinetypeTableRecord
2
BYLAYER
70
0
0
ENDTAB
0
TABLE
2
LAYER
5
2
100
AcDbSymbolTable
70
2
0
LAYER
5
50
100
AcDbSymbolTableRecord
100
AcDbLayerTableRecord
2
0
70
0
6
CONTINUOUS
0
ENDTAB
0
TABLE
2
STYLE
5
3
100
AcDbSymbolTable
70
1
0
STYLE
5
11
100
AcDbSymbolTableRecord
100
AcDbTextStyleTableRecord
2
STANDARD
70
0
0
ENDTAB
0
TABLE
2
VIEW
5
6
100
AcDbSymbolTable
70
0
0
ENDTAB
0
TABLE
2
UCS
5
7
100
AcDbSymbolTable
70
0
0
ENDTAB
0
TABLE
2
APPID
5
9
100
AcDbSymbolTable
70
2
0
APPID
5
12
100
AcDbSymbolTableRecord
100
AcDbRegAppTableRecord
2
ACAD
70
0
0
ENDTAB
0
TABLE
2
DIMSTYLE
5
A
100
AcDbSymbolTable
70
1
0
ENDTAB
0
TABLE
2
BLOCK_RECORD
5
1
100
AcDbSymbolTable
70
1
0
BLOCK_RECORD
5
1F
100
AcDbSymbolTableRecord
100
AcDbBlockTableRecord
2
*MODEL_SPACE
0
BLOCK_RECORD
5
1B
100
AcDbSymbolTableRecord
100
AcDbBlockTableRecord
2
*PAPER_SPACE
0
ENDTAB
0
ENDSEC
0
SECTION
2
BLOCKS
0
BLOCK
5
20
100
AcDbEntity
100
AcDbBlockBegin
2
*MODEL_SPACE
0
ENDBLK
5
21
100
AcDbEntity
100
AcDbBlockEnd
0
BLOCK
5
1C
100
AcDbEntity
100
AcDbBlockBegin
2
*PAPER_SPACE
0
ENDBLK
5
1D
100
AcDbEntity
100
AcDbBlockEnd
0
ENDSEC
0
SECTION
2
ENTITIES
0
CIRCLE
5
100
100
AcDbEntity
8
0
100
AcDbCircle
10
-231.93333333333334
20
123.53750000000169
30
0
40
2.1499999999999986
210
0
220
-0
230
1
0
CIRCLE
5
101
100
AcDbEntity
8
0
100
AcDbCircle
10
-348.13749999999999
20
-4.4750000000000068
30
0
40
2.1499999999999986
210
0
220
-0
230
1
0
CIRCLE
5
102
100
AcDbEntity
8
0
100
AcDbCircle
10
0.47500000000002984
20
-4.4750000000000068
30
0
40
2.1499999999999986
210
0
220
-0
230
1
0
CIRCLE
5
103
100
AcDbEntity
8
0
100
AcDbCircle
10
-115.72916666666666
20
123.53750000000164
30
0
40
2.1499999999999986
210
0
220
-0
230
1
0
CIRCLE
5
104
100
AcDbEntity
8
0
100
AcDbCircle
10
-348.13749999999999
20
123.53750000000173
30
0
40
2.1499999999999986
210
0
220
-0
230
1
0
CIRCLE
5
105
100
AcDbEntity
8
0
100
AcDbCircle
10
0.47500000000002984
20
123.5374999999998
30
0
40
2.1499999999999986
210
0
220
-0
230
1
0
CIRCLE
5
106
100
AcDbEntity
8
0
100
AcDbCircle
10
-231.93333333333334
20
-4.4750000000000068
30
0
40
2.1499999999999986
210
0
220
-0
230
1
0
CIRCLE
5
107
100
AcDbEntity
8
0
100
AcDbCircle
10
-115.72916666666666
20
-4.4750000000000068
30
0
40
2.1499999999999986
210
0
220
-0
230
1
0
ARC
5
108
100
AcDbEntity
8
0
100
AcDbCircle
10
-282.13124999999997
20
-0.97500000000005138
30
0
40
0.50000000000004829
210
0
220
0
230
1
100
AcDbArc
50
90.000000000006523
51
180
0
LINE
5
109
100
AcDbEntity
8
0
100
AcDbLine
10
-282.63125000000002
20
-0.9750000000000032
30
0
11
-282.63125000000008
21
-7.9750000000000458
31
0
0
ARC
5
110
100
AcDbEntity
8
0
100
AcDbCircle
10
-282.13124999999997
20
-7.9749999999999952
30
0
40
0.50000000000007816
210
0
220
0
230
1
100
AcDbArc
50
180
51
269.99999999999346
0
LINE
5
111
100
AcDbEntity
8
0
100
AcDbLine
10
-282.13125000000002
20
-8.4750000000000743
30
0
11
-233.44176224213837
21
-8.4750000000000227
31
0
0
ARC
5
112
100
AcDbEntity
8
0
100
AcDbCircle
10
-233.44176224213837
20
-14.825000000000031
30
0
40
6.3499999999999988
210
0
220
-0
230
1
100
AcDbArc
50
45.000000000000092
51
90
0
LINE
5
113
100
AcDbEntity
8
0
100
AcDbLine
10
-228.95163418160379
20
-10.334871939465444
30
0
11
-204.32137776229794
21
-34.965128358771224
31
0
0
ARC
5
114
100
AcDbEntity
8
0
100
AcDbCircle
10
-199.83124999999998
20
-30.475000000000037
30
0
40
6.3500000000000121
210
0
220
0
230
1
100
AcDbArc
50
225.00000380561514
51
360
0
LINE
5
115
100
AcDbEntity
8
0
100
AcDbLine
10
-193.48124999999996
20
-30.475000000000044
30
0
11
-193.48124999999996
21
-26.47500008567696
31
0
0
ARC
5
116
100
AcDbEntity
8
0
100
AcDbCircle
10
-173.83125008567688
20
-26.47500008567696
30
0
40
19.65000008567694
210
0
220
0
230
1
100
AcDbArc
50
0
51
180
0
LINE
5
117
100
AcDbEntity
8
0
100
AcDbLine
10
-154.18124999999995
20
-26.47500008567696
30
0
11
-154.18124999999995
21
-30.474999891056854
31
0
0
ARC
5
118
100
AcDbEntity
8
0
100
AcDbCircle
10
-147.83124999999995
20
-30.475000000000023
30
0
40
6.3499999999999988
210
0
220
0
230
1
100
AcDbArc
50
179.99999914622637
51
315.00000114944766
0
LINE
5
119
100
AcDbEntity
8
0
100
AcDbLine
10
-143.34112184938601
20
-34.965127970455242
30
0
11
-118.71086581839631
21
-10.334871939465419
31
0
0
ARC
5
120
100
AcDbEntity
8
0
100
AcDbCircle
10
-114.22073775786171
20
-14.825000000000008
30
0
40
6.3500000000000076
210
0
220
-0
230
1
100
AcDbArc
50
90
51
135.00000000000011
0
LINE
5
121
100
AcDbEntity
8
0
100
AcDbLine
10
-114.22073775786171
20
-8.4749999999999996
30
0
11
13.805303000093261
21
-8.4749999999999339
31
0
0
ARC
5
122
100
AcDbEntity
8
0
100
AcDbCircle
10
13.805303000093261
20
-2.1249999999999503
30
0
40
6.3499999999999845
210
0
220
0
230
1
100
AcDbArc
50
-90
51
19.733195887385254
0
ARC
5
123
100
AcDbEntity
8
0
100
AcDbCircle
10
201.02358132102398
20
65.031249999999858
30
0
40
192.54858132102399
210
0
220
0
230
1
100
AcDbArc
50
160.17354999214444
51
199.73319588738522
0
ARC
5
124
100
AcDbEntity
8
0
100
AcDbCircle
10
13.914853865297383
20
132.49212578303857
30
0
40
6.3499999999999401
210
0
220
0
230
1
100
AcDbArc
50
-19.826450007855712
51
96.891501579522043
0
ARC
5
125
100
AcDbEntity
8
0
100
AcDbCircle
10
-173.83125000000206
20
1685.8741495029135
30
0
40
1558.3366495029143
210
0
220
0
230
1
100
AcDbArc
50
263.10849842047799
51
276.89150157952213
0
ARC
5
126
100
AcDbEntity
8
0
100
AcDbCircle
10
-361.57735386529799
20
132.49212578303855
30
0
40
6.3499999999991914
210
0
220
-0
230
1
100
AcDbArc
50
83.10849842048107
51
199.82645000785561
0
ARC
5
127
100
AcDbEntity
8
0
100
AcDbCircle
10
-548.68608132102281
20
65.031250000000284
30
0
40
192.54858132102285
210
-0
220
0
230
1
100
AcDbArc
50
-19.733195887385527
51
19.82645000785562
0
ARC
5
128
100
AcDbEntity
8
0
100
AcDbCircle
10
-361.46780300009345
20
-2.1250000000001137
30
0
40
6.3499999999999188
210
0
220
0
230
1
100
AcDbArc
50
160.26680411261424
51
270.00000000000051
0
LINE
5
129
100
AcDbEntity
8
0
100
AcDbLine
10
-361.4678030000934
20
-8.4750000000000441
30
0
11
-294.13125000000008
21
-8.4750000000000441
31
0
0
ARC
5
130
100
AcDbEntity
8
0
100
AcDbCircle
10
-294.13125000000014
20
-7.9749999999999996
30
0
40
0.50000000000004485
210
0
220
0
230
1
100
AcDbArc
50
270.00000000000648
51
360
0
LINE
5
131
100
AcDbEntity
8
0
100
AcDbLine
10
-293.63125000000014
20
-7.9750000000000485
30
0
11
-293.63125000000008
21
-0.97500000000000364
31
0
0
ARC
5
132
100
AcDbEntity
8
0
100
AcDbCircle
10
-294.13125000000014
20
-0.97500000000005183
30
0
40
0.50000000000007816
210
0
220
-0
230
1
100
AcDbArc
50
0
51
89.999999999993491
0
LINE
5
133
100
AcDbEntity
8
0
100
AcDbLine
10
-294.13125000000008
20
-0.47499999999997367
30
0
11
-347.63749999999987
21
-0.4750000000000032
31
0
0
ARC
5
134
100
AcDbEntity
8
0
100
AcDbCircle
10
-347.63749999999987
20
0.024999999999995026
30
0
40
0.49999999999997158
210
0
220
0
230
1
100
AcDbArc
50
180
51
270
0
LINE
5
135
100
AcDbEntity
8
0
100
AcDbLine
10
-348.13749999999982
20
0.024999999999995151
30
0
11
-348.13749999999982
21
119.03749999999977
31
0
0
ARC
5
136
100
AcDbEntity
8
0
100
AcDbCircle
10
-347.63749999999987
20
119.03749999999977
30
0
40
0.50000000000000711
210
0
220
-0
230
1
100
AcDbArc
50
90
51
180
0
LINE
5
137
100
AcDbEntity
8
0
100
AcDbLine
10
-347.63749999999987
20
119.53749999999978
30
0
11
-204.98605256501665
21
119.53749999999978
31
0
0
ARC
5
138
100
AcDbEntity
8
0
100
AcDbCircle
10
-204.98661915332991
20
121.57573095176514
30
0
40
2.0382310305155791
210
-0
220
0
230
1
100
AcDbArc
50
270.01592710492747
51
314.98468471477429
0
LINE
5
139
100
AcDbEntity
8
0
100
AcDbLine
10
-203.54575735859368
20
120.13409866013505
30
0
11
-203.36559257563846
21
120.31426365330809
31
0
0
ARC
5
140
100
AcDbEntity
8
0
100
AcDbCircle
10
-200.47027133547994
20
117.41878534435517
30
0
40
4.0947136311749359
210
0
220
-0
230
1
100
AcDbArc
50
89.976267330253194
51
134.9984459177125
0
LINE
5
141
100
AcDbEntity
8
0
100
AcDbLine
10
-200.46857525098011
20
121.5134986242598
30
0
11
-199.57832689710159
21
121.51349818236712
31
0
0
ARC
5
142
100
AcDbEntity
8
0
100
AcDbCircle
10
-199.57935998845983
20
117.41878903276429
30
0
40
4.0947092799268079
210
0
220
-0
230
1
100
AcDbArc
50
44.99845505483011
51
89.985544327750787
0
LINE
5
143
100
AcDbEntity
8
0
100
AcDbLine
10
-196.68388521811193
20
120.31410765795867
30
0
11
-196.50465788335637
21
120.13488012333504
31
0
0
ARC
5
144
100
AcDbEntity
8
0
100
AcDbCircle
10
-195.06298534647993
20
121.57580166350009
30
0
40
2.0383018884589661
210
0
220
0
230
1
100
AcDbArc
50
224.98507284068887
51
270.02180715154884
0
LINE
5
145
100
AcDbEntity
8
0
100
AcDbLine
10
-195.0622095553573
20
119.53749992267673
30
0
11
-185.96809017988167
21
119.53749999999978
31
0
0
ARC
5
146
100
AcDbEntity
8
0
100
AcDbCircle
10
-185.96864307147996
20
121.57580166350019
30
0
40
2.0383017384866422
210
-0
220
0
230
1
100
AcDbArc
50
270.01554154367852
51
314.9850728414566
0
LINE
5
147
100
AcDbEntity
8
0
100
AcDbLine
10
-184.52772153129553
20
120.13412912664299
30
0
11
-184.3475872659383
21
120.31426359191158
31
0
0
ARC
5
148
100
AcDbEntity
8
0
100
AcDbCircle
10
-181.4522659643799
20
117.41878534435506
30
0
40
4.0947136311750603
210
0
220
-0
230
1
100
AcDbArc
50
89.976267330252
51
134.99844713269286
0
LINE
5
149
100
AcDbEntity
8
0
100
AcDbLine
10
-181.45056987987999
20
121.5134986242598
30
0
11
-180.55966099798161
21
121.5134986242598
31
0
0
ARC
5
150
100
AcDbEntity
8
0
100
AcDbCircle
10
-180.56135708247993
20
117.41878534435514
30
0
40
4.094713631174975
210
0
220
-0
230
1
100
AcDbArc
50
45.001554076249455
51
89.976267330274254
0
LINE
5
151
100
AcDbEntity
8
0
100
AcDbLine
10
-177.66603584201624
20
120.31426365300297
30
0
11
-177.4858710593391
21
120.13409866010797
31
0
0
ARC
5
152
100
AcDbEntity
8
0
100
AcDbCircle
10
-176.04500926462998
20
121.57573095176505
30
0
40
2.0382311880159558
210
0
220
0
230
1
100
AcDbArc
50
225.01531528630133
51
270.02235550287457
0
LINE
5
153
100
AcDbEntity
8
0
100
AcDbLine
10
-176.0442139934527
20
119.53749991889744
30
0
11
-90.686071006565783
21
119.53749999999978
31
0
0
ARC
5
154
100
AcDbEntity
8
0
100
AcDbCircle
10
-90.686630746059947
20
121.5757663073061
30
0
40
2.0382663841628808
210
-0
220
0
230
1
100
AcDbArc
50
270.01573430798578
51
314.98487891030709
0
LINE
5
155
100
AcDbEntity
8
0
100
AcDbLine
10
-89.245739075605456
20
120.13411389654965
30
0
11
-89.065589523895298
21
120.31426365329128
31
0
0
ARC
5
156
100
AcDbEntity
8
0
100
AcDbCircle
10
-86.170268283719963
20
117.41878534435511
30
0
40
4.094713631175007
210
0
220
-0
230
1
100
AcDbArc
50
89.976267330252981
51
134.99844591804458
0
LINE
5
157
100
AcDbEntity
8
0
100
AcDbLine
10
-86.168572199220122
20
121.5134986242598
30
0
11
-80.487073695735333
21
121.51349863241447
31
0
0
ARC
5
158
100
AcDbEntity
8
0
100
AcDbCircle
10
-80.48536778866989
20
117.41874981101424
30
0
40
4.0947491767478903
210
0
220
-0
230
1
100
AcDbArc
50
44.99830847008981
51
90.023869905994189
0
LINE
5
159
100
AcDbEntity
8
0
100
AcDbLine
10
-77.589857398842213
20
120.31408923893585
30
0
11
-77.40986702794315
21
120.13409865702869
31
0
0
ARC
5
160
100
AcDbEntity
8
0
100
AcDbCircle
10
-75.96900523631497
20
121.57573095176502
30
0
40
2.0382311880159016
210
0
220
0
230
1
100
AcDbArc
50
225.01531540874845
51
270.02235550289259
0
LINE
5
161
100
AcDbEntity
8
0
100
AcDbLine
10
-75.968209965137049
20
119.53749991889744
30
0
11
-0.024999999999977263
21
119.53749999999978
31
0
0
ARC
5
162
100
AcDbEntity
8
0
100
AcDbCircle
10
-0.024999999999970185
20
119.03749999999977
30
0
40
0.5
210
0
220
-0
230
1
100
AcDbArc
50
0
51
90.00000000000081
0
LINE
5
163
100
AcDbEntity
8
0
100
AcDbLine
10
0.47500000000002984
20
119.03749999999977
30
0
11
0.47500000000002984
21
0.024999999999995026
31
0
0
ARC
5
164
100
AcDbEntity
8
0
100
AcDbCircle
10
-0.024999999999977263
20
0.02499999999999683
30
0
40
0.5
210
0
220
0
230
1
100
AcDbArc
50
270
51
360
0
LINE
5
165
100
AcDbEntity
8
0
100
AcDbLine
10
-0.024999999999977353
20
-0.4750000000000032
30
0
11
-282.13125000000002
21
-0.47500000000000309
31
0
0
ENDSEC
0
SECTION
2
OBJECTS
0
DICTIONARY
5
C
100
AcDbDictionary
3
ACAD_GROUP
350
D
3
ACAD_MLINESTYLE
350
17
0
DICTIONARY
5
D
100
AcDbDictionary
0
DICTIONARY
5
1A
330
C
100
AcDbDictionary
0
DICTIONARY
5
17
100
AcDbDictionary
0
ENDSEC
0
EOF
