0
SECTION
2
HEADER
9
$INSUNITS
70
4
9
$ACADVER
1
AC1014
9
$HANDSEED
5
FFFF
0
ENDSEC
0
SECTION
2
TABLES
0
TABLE
2
VPORT
5
8
100
AcDbSymbolTable
0
ENDTAB
0
TABLE
2
LTYPE
5
5
100
AcDbSymbolTable
0
LTYPE
5
14
100
AcDbSymbolTableRecord
100
AcDbLinetypeTableRecord
2
BYBLOCK
70
0
0
LTYPE
5
15
100
AcDbSymbolTableRecord
100
AcDbLinetypeTableRecord
2
BYLAYER
70
0
0
ENDTAB
0
TABLE
2
LAYER
5
2
100
AcDbSymbolTable
70
2
0
LAYER
5
50
100
AcDbSymbolTableRecord
100
AcDbLayerTableRecord
2
0
70
0
6
CONTINUOUS
0
ENDTAB
0
TABLE
2
STYLE
5
3
100
AcDbSymbolTable
70
1
0
STYLE
5
11
100
AcDbSymbolTableRecord
100
AcDbTextStyleTableRecord
2
STANDARD
70
0
0
ENDTAB
0
TABLE
2
VIEW
5
6
100
AcDbSymbolTable
70
0
0
ENDTAB
0
TABLE
2
UCS
5
7
100
AcDbSymbolTable
70
0
0
ENDTAB
0
TABLE
2
APPID
5
9
100
AcDbSymbolTable
70
2
0
APPID
5
12
100
AcDbSymbolTableRecord
100
AcDbRegAppTableRecord
2
ACAD
70
0
0
ENDTAB
0
TABLE
2
DIMSTYLE
5
A
100
AcDbSymbolTable
70
1
0
ENDTAB
0
TABLE
2
BLOCK_RECORD
5
1
100
AcDbSymbolTable
70
1
0
BLOCK_RECORD
5
1F
100
AcDbSymbolTableRecord
100
AcDbBlockTableRecord
2
*MODEL_SPACE
0
BLOCK_RECORD
5
1B
100
AcDbSymbolTableRecord
100
AcDbBlockTableRecord
2
*PAPER_SPACE
0
ENDTAB
0
ENDSEC
0
SECTION
2
BLOCKS
0
BLOCK
5
20
100
AcDbEntity
100
AcDbBlockBegin
2
*MODEL_SPACE
0
ENDBLK
5
21
100
AcDbEntity
100
AcDbBlockEnd
0
BLOCK
5
1C
100
AcDbEntity
100
AcDbBlockBegin
2
*PAPER_SPACE
0
ENDBLK
5
1D
100
AcDbEntity
100
AcDbBlockEnd
0
ENDSEC
0
SECTION
2
ENTITIES
0
ARC
5
100
100
AcDbEntity
8
0
100
AcDbCircle
10
-282.13125000000002
20
-7.975000000000021
30
0
40
0.50000000000000711
210
0
220
0
230
1
100
AcDbArc
50
180
51
270
0
LINE
5
101
100
AcDbEntity
8
0
100
AcDbLine
10
-282.13125000000002
20
-8.4750000000000281
30
0
11
-233.44176224213837
21
-8.4750000000000227
31
0
0
ARC
5
102
100
AcDbEntity
8
0
100
AcDbCircle
10
-233.44176224213837
20
-14.825000000000031
30
0
40
6.3499999999999996
210
0
220
-0
230
1
100
AcDbArc
50
45.000000000000107
51
90
0
LINE
5
103
100
AcDbEntity
8
0
100
AcDbLine
10
-228.95163418160379
20
-10.334871939465442
30
0
11
-204.32137776229794
21
-34.96512835877121
31
0
0
ARC
5
104
100
AcDbEntity
8
0
100
AcDbCircle
10
-199.83124999999998
20
-30.47500000000003
30
0
40
6.3500000000000121
210
0
220
0
230
1
100
AcDbArc
50
-134.99999619438492
51
0
0
LINE
5
105
100
AcDbEntity
8
0
100
AcDbLine
10
-193.48124999999996
20
-30.47500000000003
30
0
11
-193.48124999999996
21
-26.47500008567696
31
0
0
ARC
5
106
100
AcDbEntity
8
0
100
AcDbCircle
10
-173.83125008567688
20
-26.475000085676946
30
0
40
19.65000008567694
210
0
220
0
230
1
100
AcDbArc
50
0
51
180
0
LINE
5
107
100
AcDbEntity
8
0
100
AcDbLine
10
-154.18124999999995
20
-26.47500008567696
30
0
11
-154.18124999999995
21
-30.474999891056854
31
0
0
ARC
5
108
100
AcDbEntity
8
0
100
AcDbCircle
10
-147.83124999999995
20
-30.475000000000023
30
0
40
6.3499999999999988
210
0
220
0
230
1
100
AcDbArc
50
179.99999914622637
51
315.00000114944766
0
LINE
5
109
100
AcDbEntity
8
0
100
AcDbLine
10
-143.34112184938601
20
-34.965127970455242
30
0
11
-118.71086581839631
21
-10.33487193946543
31
0
0
ARC
5
110
100
AcDbEntity
8
0
100
AcDbCircle
10
-114.22073775786171
20
-14.825000000000017
30
0
40
6.3500000000000068
210
0
220
-0
230
1
100
AcDbArc
50
90
51
135.00000000000011
0
LINE
5
111
100
AcDbEntity
8
0
100
AcDbLine
10
-114.22073775786171
20
-8.4750000000000103
30
0
11
13.805303000093261
21
-8.4749999999999339
31
0
0
ARC
5
112
100
AcDbEntity
8
0
100
AcDbCircle
10
13.805303000093261
20
-2.1249999999999503
30
0
40
6.3499999999999845
210
0
220
0
230
1
100
AcDbArc
50
-90
51
19.733195887385254
0
ARC
5
113
100
AcDbEntity
8
0
100
AcDbCircle
10
201.02358132102398
20
65.031249999999858
30
0
40
192.54858132102399
210
0
220
0
230
1
100
AcDbArc
50
160.17354999214444
51
199.73319588738522
0
ARC
5
114
100
AcDbEntity
8
0
100
AcDbCircle
10
13.914853865297383
20
132.49212578303857
30
0
40
6.3499999999999401
210
0
220
0
230
1
100
AcDbArc
50
-19.826450007855712
51
96.891501579522043
0
ARC
5
115
100
AcDbEntity
8
0
100
AcDbCircle
10
-173.83125000000206
20
1685.8741495029135
30
0
40
1558.3366495029143
210
0
220
0
230
1
100
AcDbArc
50
263.10849842047799
51
276.89150157952213
0
ARC
5
116
100
AcDbEntity
8
0
100
AcDbCircle
10
-361.57735386529799
20
132.49212578303855
30
0
40
6.3499999999991914
210
0
220
-0
230
1
100
AcDbArc
50
83.10849842048107
51
199.82645000785561
0
ARC
5
117
100
AcDbEntity
8
0
100
AcDbCircle
10
-548.68608132102281
20
65.031250000000284
30
0
40
192.54858132102285
210
-0
220
0
230
1
100
AcDbArc
50
-19.733195887385527
51
19.82645000785562
0
ARC
5
118
100
AcDbEntity
8
0
100
AcDbCircle
10
-361.46780300009345
20
-2.1250000000001137
30
0
40
6.3499999999999188
210
0
220
0
230
1
100
AcDbArc
50
160.26680411261424
51
270.00000000000051
0
LINE
5
119
100
AcDbEntity
8
0
100
AcDbLine
10
-361.4678030000934
20
-8.4750000000000441
30
0
11
-294.13125000000008
21
-8.4750000000000441
31
0
0
ARC
5
120
100
AcDbEntity
8
0
100
AcDbCircle
10
-294.13125000000014
20
-7.9749999999999996
30
0
40
0.50000000000004485
210
0
220
0
230
1
100
AcDbArc
50
270.00000000000648
51
360
0
LINE
5
121
100
AcDbEntity
8
0
100
AcDbLine
10
-293.63125000000014
20
-7.9750000000000485
30
0
11
-293.63125000000008
21
-1.0697610589526441
31
0
0
ARC
5
122
100
AcDbEntity
8
0
100
AcDbCircle
10
-292.13125000000008
20
-1.0697610589526372
30
0
40
1.4999999999999811
210
0
220
0
230
1
100
AcDbArc
50
123.60044774908333
51
180
0
ARC
5
123
100
AcDbEntity
8
0
100
AcDbCircle
10
-293.55625000000026
20
1.0749999999999815
30
0
40
1.0750000000000219
210
-0
220
0
230
1
100
AcDbArc
50
-56.39955225091871
51
0
0
LINE
5
124
100
AcDbEntity
8
0
100
AcDbLine
10
-292.48125000000022
20
1.075000000000053
30
0
11
-292.48125000000027
21
1.4499999999998181
31
0
0
ARC
5
125
100
AcDbEntity
8
0
100
AcDbCircle
10
-291.40625000000023
20
1.4499999999999247
30
0
40
1.0750000000000171
210
0
220
-0
230
1
100
AcDbArc
50
90
51
180
0
LINE
5
126
100
AcDbEntity
8
0
100
AcDbLine
10
-291.40625000000023
20
2.5249999999999417
30
0
11
-284.85625000000005
21
2.5249999999999417
31
0
0
ARC
5
127
100
AcDbEntity
8
0
100
AcDbCircle
10
-284.85625000000005
20
1.4499999999999247
30
0
40
1.0750000000000171
210
-0
220
0
230
1
100
AcDbArc
50
0
51
90
0
LINE
5
128
100
AcDbEntity
8
0
100
AcDbLine
10
-283.78125000000006
20
1.4499999999998889
30
0
11
-283.78125000000006
21
1.0749999999999815
31
0
0
ARC
5
129
100
AcDbEntity
8
0
100
AcDbCircle
10
-282.70625000000001
20
1.074999999999946
30
0
40
1.0750000000000526
210
0
220
0
230
1
100
AcDbArc
50
180
51
236.39955225091973
0
ARC
5
130
100
AcDbEntity
8
0
100
AcDbCircle
10
-284.13125000000025
20
-1.0697610589527669
30
0
40
1.5000000000000924
210
0
220
-0
230
1
100
AcDbArc
50
0
51
56.399552250916138
0
LINE
5
131
100
AcDbEntity
8
0
100
AcDbLine
10
-282.63125000000014
20
-1.0697610589526896
30
0
11
-282.63125000000002
21
-7.9750000000000565
31
0
0
CIRCLE
5
132
100
AcDbEntity
8
0
100
AcDbCircle
10
-115.72916666666666
20
-4.4750000000000068
30
0
40
2.1499999999999986
210
0
220
-0
230
1
0
CIRCLE
5
133
100
AcDbEntity
8
0
100
AcDbCircle
10
-231.93333333333334
20
-4.4750000000000068
30
0
40
2.1499999999999986
210
0
220
-0
230
1
0
CIRCLE
5
134
100
AcDbEntity
8
0
100
AcDbCircle
10
-231.93333333333334
20
123.53750000000169
30
0
40
2.1499999999999986
210
0
220
-0
230
1
0
CIRCLE
5
135
100
AcDbEntity
8
0
100
AcDbCircle
10
-348.13749999999999
20
-4.4750000000000068
30
0
40
2.1499999999999986
210
0
220
-0
230
1
0
CIRCLE
5
136
100
AcDbEntity
8
0
100
AcDbCircle
10
0.47500000000002984
20
-4.4750000000000068
30
0
40
2.1499999999999986
210
0
220
-0
230
1
0
CIRCLE
5
137
100
AcDbEntity
8
0
100
AcDbCircle
10
-115.72916666666666
20
123.53750000000164
30
0
40
2.1499999999999986
210
0
220
-0
230
1
0
CIRCLE
5
138
100
AcDbEntity
8
0
100
AcDbCircle
10
-348.13749999999999
20
123.53750000000173
30
0
40
2.1499999999999986
210
0
220
-0
230
1
0
CIRCLE
5
139
100
AcDbEntity
8
0
100
AcDbCircle
10
0.47500000000002984
20
123.5374999999998
30
0
40
2.1499999999999986
210
0
220
-0
230
1
0
LWPOLYLINE
5
140
100
AcDbEntity
8
0
100
AcDbPolyline
90
8
70
1
43
0.0
10
-244.62500000000003
20
2.5249999999999306
42
-0.41421356237314316
10
-245.12500000000003
20
3.0249999999999488
10
-245.12500000000006
20
16.024999999999956
42
-0.41421356237307422
10
-244.62500000000003
20
16.524999999999963
10
-231.625
20
16.524999999999949
42
-0.41421356237312884
10
-231.125
20
16.024999999999956
10
-231.12500000000006
20
3.0249999999999488
42
-0.41421356237304235
10
-231.625
20
2.5249999999999417
0
LWPOLYLINE
5
141
100
AcDbEntity
8
0
100
AcDbPolyline
90
8
70
1
43
0.0
10
-293.03750000000008
20
3.0249999999999488
42
-0.41421356237304235
10
-293.53750000000002
20
2.5249999999999417
10
-306.53750000000002
20
2.5249999999999155
42
-0.4142135623731103
10
-307.03750000000002
20
3.0249999999999488
10
-307.03750000000002
20
16.024999999999956
42
-0.41421356237300005
10
-306.53750000000002
20
16.524999999999945
10
-293.53750000000002
20
16.524999999999949
42
-0.41421356237312884
10
-293.03750000000002
20
16.024999999999956
0
LWPOLYLINE
5
142
100
AcDbEntity
8
0
100
AcDbPolyline
90
8
70
1
43
0.0
10
-345.13749999999993
20
16.024999999999938
42
-0.41421356237327711
10
-344.63749999999999
20
16.524999999999928
10
-331.63749999999999
20
16.524999999999881
42
-0.41421356237299489
10
-331.13750000000005
20
16.024999999999938
10
-331.13749999999987
20
3.0249999999999488
42
-0.41421356237321955
10
-331.63749999999999
20
2.5249999999999417
10
-344.63749999999999
20
2.5249999999999106
42
-0.41421356237309243
10
-345.13750000000005
20
3.0249999999999488
0
LWPOLYLINE
5
143
100
AcDbEntity
8
0
100
AcDbPolyline
90
8
70
1
43
0.0
10
-188.26250000000002
20
64.937499999999943
42
-0.41421356237304302
10
-188.76249999999999
20
64.437499999999943
10
-201.76249999999999
20
64.437499999999929
42
-0.41421356237314183
10
-202.26249999999999
20
64.937499999999943
10
-202.26250000000005
20
77.937499999999943
42
-0.41421356237307944
10
-201.76249999999999
20
78.437499999999943
10
-188.76249999999999
20
78.437499999999872
42
-0.41421356237316787
10
-188.26249999999999
20
77.937499999999957
0
LWPOLYLINE
5
144
100
AcDbEntity
8
0
100
AcDbPolyline
90
8
70
1
43
0.0
10
-31.100000000000001
20
45.887499999999974
42
-0.41421356237310025
10
-31.600000000000001
20
45.387499999999967
10
-44.600000000000009
20
45.387500000000003
42
-0.41421356237310542
10
-45.09999999999998
20
45.887499999999974
10
-45.100000000000016
20
58.887499999999982
42
-0.41421356237311585
10
-44.600000000000009
20
59.387499999999989
10
-31.600000000000001
20
59.387499999999953
42
-0.41421356237310802
10
-31.099999999999994
20
58.887499999999982
0
LWPOLYLINE
5
145
100
AcDbEntity
8
0
100
AcDbPolyline
90
8
70
1
43
0.0
10
-82.225000000000023
20
101.03749999999994
10
-82.225000000000023
20
118.03750000000008
42
0.41421356237309503
10
-82.724999999999994
20
118.53750000000005
10
-88.725000000000037
20
118.53750000000005
42
0.41421356237310542
10
-89.225000000000023
20
118.03750000000005
10
-89.224999999999994
20
101.03749999999994
42
0.41421356237313667
10
-88.725000000000023
20
100.53749999999994
10
-82.725000000000009
20
100.53749999999995
42
0.41421356237313667
0
LWPOLYLINE
5
146
100
AcDbEntity
8
0
100
AcDbPolyline
90
8
70
1
43
0.0
10
-83.487499999999983
20
83.987499999999955
42
-0.41421356237309503
10
-83.987499999999997
20
83.487499999999955
10
-96.987500000000011
20
83.487499999999926
42
-0.41421356237307422
10
-97.487500000000011
20
83.987499999999955
10
-97.487500000000026
20
96.987499999999969
42
-0.4142135623730534
10
-96.987500000000011
20
97.487499999999955
10
-83.987499999999997
20
97.487499999999898
42
-0.41421356237315748
10
-83.487500000000026
20
96.987499999999969
0
LWPOLYLINE
5
147
100
AcDbEntity
8
0
100
AcDbPolyline
90
8
70
1
43
0.0
10
-196.52500000000003
20
101.03749999999994
10
-196.52500000000001
20
118.03749999999991
42
0.4142135623730222
10
-197.02500000000001
20
118.53749999999991
10
-203.02500000000003
20
118.53749999999991
42
0.41421356237310542
10
-203.52500000000003
20
118.03749999999991
10
-203.52500000000003
20
101.03749999999994
42
0.41421356237310542
10
-203.02500000000003
20
100.53749999999992
10
-197.02500000000001
20
100.53749999999995
42
0.41421356237299095
0
LWPOLYLINE
5
148
100
AcDbEntity
8
0
100
AcDbPolyline
90
8
70
1
43
0.0
10
-111.27500000000001
20
2.5249999999999782
42
-0.41421356237309437
10
-111.77500000000002
20
3.0249999999999844
10
-111.77500000000003
20
16.024999999999974
42
-0.41421356237309892
10
-111.27500000000001
20
16.524999999999963
10
-98.275000000000006
20
16.524999999999924
42
-0.41421356237312495
10
-97.775000000000034
20
16.024999999999974
10
-97.774999999999977
20
3.0249999999999844
42
-0.41421356237312268
10
-98.275000000000006
20
2.5249999999999773
0
LWPOLYLINE
5
149
100
AcDbEntity
8
0
100
AcDbPolyline
90
8
70
1
43
0.0
10
-269.72500000000002
20
16.524999999999949
42
-0.41421356237312884
10
-269.22500000000002
20
16.024999999999956
10
-269.22500000000008
20
3.0249999999999488
42
-0.41421356237304235
10
-269.72500000000002
20
2.5249999999999417
10
-282.72500000000002
20
2.5249999999999306
42
-0.41421356237314316
10
-283.22500000000002
20
3.0249999999999488
10
-283.22500000000002
20
16.024999999999956
42
-0.41421356237312362
10
-282.72500000000002
20
16.524999999999945
0
LWPOLYLINE
5
150
100
AcDbEntity
8
0
100
AcDbPolyline
90
8
70
1
43
0.0
10
-102.53749999999999
20
83.987499999999955
42
-0.41421356237309503
10
-103.03750000000001
20
83.487499999999955
10
-116.03749999999998
20
83.487499999999955
42
-0.41421356237307422
10
-116.53750000000002
20
83.987499999999955
10
-116.53750000000002
20
96.987499999999969
42
-0.41421356237309503
10
-116.03750000000002
20
97.487499999999983
10
-103.03750000000001
20
97.487499999999955
42
-0.4142135623730534
10
-102.53749999999999
20
96.987499999999955
0
LWPOLYLINE
5
151
100
AcDbEntity
8
0
100
AcDbPolyline
90
8
70
1
43
0.0
10
-35.075000000000003
20
26.337499999999956
42
-0.41421356237311063
10
-35.57500000000001
20
26.837499999999981
10
-35.575000000000003
20
39.83749999999997
42
-0.41421356237310025
10
-35.075000000000003
20
40.337499999999977
10
-22.07499999999996
20
40.337499999999977
42
-0.41421356237310542
10
-21.574999999999989
20
39.83749999999997
10
-21.574999999999971
20
26.837499999999963
42
-0.4142135623730846
10
-22.07499999999996
20
26.337499999999974
0
LWPOLYLINE
5
152
100
AcDbEntity
8
0
100
AcDbPolyline
90
8
70
1
43
0.0
10
-87.962500000000034
20
77.937499999999957
42
-0.41421356237310025
10
-87.462500000000034
20
78.437499999999972
10
-74.462499999999991
20
78.437499999999929
42
-0.41421356237310542
10
-73.96250000000002
20
77.937499999999957
10
-73.962500000000006
20
64.937499999999972
42
-0.41421356237311585
10
-74.462499999999991
20
64.437499999999957
10
-87.462500000000034
20
64.437499999999972
42
-0.41421356237310025
10
-87.962500000000006
20
64.937499999999943
0
LWPOLYLINE
5
153
100
AcDbEntity
8
0
100
AcDbPolyline
90
8
70
1
43
0.0
10
-268.49425000000002
20
99.487499999999955
42
-0.41421356237301177
10
-267.99425000000002
20
98.98749999999994
10
-267.99425000000008
20
84.987499999999926
42
-0.41421356237298057
10
-268.49425000000002
20
84.487499999999926
10
-274.49425000000008
20
84.487499999999955
42
-0.41421356237309503
10
-274.99425000000002
20
84.987499999999926
10
-274.99425000000008
20
98.987499999999926
42
-0.41421356237309503
10
-274.49425000000008
20
99.487499999999955
0
LWPOLYLINE
5
154
100
AcDbEntity
8
0
100
AcDbPolyline
90
8
70
1
43
0.0
10
-325.58750000000003
20
45.387500000000003
42
-0.41421356237294937
10
-326.08749999999992
20
45.887499999999939
10
-326.08749999999998
20
58.887499999999946
42
-0.41421356237321988
10
-325.58749999999998
20
59.387499999999953
10
-312.58749999999998
20
59.38749999999991
42
-0.41421356237315227
10
-312.08749999999998
20
58.887499999999946
10
-312.08750000000003
20
45.887499999999939
42
-0.41421356237304302
10
-312.58749999999998
20
45.387499999999932
0
LWPOLYLINE
5
155
100
AcDbEntity
8
0
100
AcDbPolyline
90
8
70
1
43
0.0
10
-226.36250000000004
20
64.937499999999943
42
-0.41421356237299095
10
-226.86250000000001
20
64.437499999999943
10
-239.86249999999998
20
64.437499999999886
42
-0.41421356237312623
10
-240.36250000000001
20
64.937499999999943
10
-240.36250000000001
20
77.937499999999943
42
-0.41421356237312101
10
-239.86250000000001
20
78.437499999999929
10
-226.86250000000001
20
78.437499999999972
42
-0.41421356237304818
10
-226.36250000000004
20
77.937499999999943
0
LWPOLYLINE
5
156
100
AcDbEntity
8
0
100
AcDbPolyline
90
8
70
1
43
0.0
10
-248.88075000000001
20
62.937499999999943
42
-0.41421356237312101
10
-249.38075000000001
20
62.43749999999995
10
-255.38074999999998
20
62.437499999999915
42
-0.41421356237314705
10
-255.88075000000003
20
62.937499999999943
10
-255.88075000000006
20
76.937499999999943
42
-0.41421356237307944
10
-255.38075000000003
20
77.437499999999943
10
-249.38075000000003
20
77.437499999999972
42
-0.41421356237314705
10
-248.88075000000001
20
76.937499999999943
0
LWPOLYLINE
5
157
100
AcDbEntity
8
0
100
AcDbPolyline
90
8
70
1
43
0.0
10
-216.83750000000006
20
83.98749999999994
42
-0.41421356237304302
10
-217.33750000000001
20
83.487499999999955
10
-230.33750000000001
20
83.487499999999926
42
-0.41421356237313667
10
-230.83750000000003
20
83.987499999999926
10
-230.83750000000003
20
96.987499999999926
42
-0.41421356237313667
10
-230.33750000000001
20
97.48749999999994
10
-217.33750000000001
20
97.487499999999955
42
-0.41421356237301177
10
-216.83750000000001
20
96.987499999999955
0
LWPOLYLINE
5
158
100
AcDbEntity
8
0
100
AcDbPolyline
90
8
70
1
43
0.0
10
-266.05624999999998
20
83.487499999999926
42
-0.41421356237313667
10
-266.55624999999998
20
83.987499999999926
10
-266.55624999999998
20
96.987499999999926
42
-0.41421356237313667
10
-266.05624999999998
20
97.48749999999994
10
-253.05625000000003
20
97.48749999999994
42
-0.41421356237313667
10
-252.55625000000003
20
96.987499999999926
10
-252.55625000000003
20
83.987499999999926
42
-0.41421356237313667
10
-253.05625000000003
20
83.487499999999926
0
LWPOLYLINE
5
159
100
AcDbEntity
8
0
100
AcDbPolyline
90
8
70
1
43
0.0
10
-2.5249999999999586
20
26.837499999999981
42
-0.41421356237309048
10
-3.0249999999999488
20
26.337499999999991
10
-16.024999999999991
20
26.33749999999992
42
-0.41421356237311063
10
-16.525000000000034
20
26.837499999999981
10
-16.524999999999995
20
39.83749999999997
42
-0.41421356237310802
10
-16.024999999999991
20
40.337499999999977
10
-3.0249999999999488
20
40.337500000000013
42
-0.41421356237306184
10
-2.5249999999999773
20
39.83749999999997
0
LWPOLYLINE
5
160
100
AcDbEntity
8
0
100
AcDbPolyline
90
8
70
1
43
0.0
10
-251.11825000000005
20
98.98749999999994
42
-0.4142135623730846
10
-250.61824999999999
20
99.487499999999955
10
-244.61825000000002
20
99.487499999999926
42
-0.41421356237313667
10
-244.11824999999999
20
98.987499999999926
10
-244.11825000000005
20
84.98749999999994
42
-0.41421356237319906
10
-244.61825000000002
20
84.487499999999926
10
-250.61824999999999
20
84.487499999999898
42
-0.41421356237311585
10
-251.11824999999999
20
84.98749999999994
0
LWPOLYLINE
5
161
100
AcDbEntity
8
0
100
AcDbPolyline
90
8
70
1
43
0.0
10
-7.2874999999999854
20
103.03749999999997
42
-0.41421356237307094
10
-7.7875000000000227
20
102.53749999999997
10
-20.787499999999994
20
102.53750000000002
42
-0.41421356237306639
10
-21.287499999999966
20
103.03749999999997
10
-21.287499999999998
20
116.03749999999997
42
-0.41421356237307161
10
-20.787499999999994
20
116.53749999999997
10
-7.7874999999999872
20
116.53749999999994
42
-0.41421356237309048
10
-7.2875000000000512
20
116.03749999999997
0
LWPOLYLINE
5
162
100
AcDbEntity
8
0
100
AcDbPolyline
90
8
70
1
43
0.0
10
-264.46249999999992
20
45.887499999999939
42
-0.41421356237304818
10
-264.96249999999998
20
45.387499999999946
10
-277.96249999999998
20
45.387499999999974
42
-0.41421356237315227
10
-278.46250000000003
20
45.887499999999939
10
-278.46249999999998
20
58.887499999999946
42
-0.41421356237299095
10
-277.96249999999998
20
59.387499999999953
10
-264.96249999999998
20
59.387499999999974
42
-0.41421356237316787
10
-264.46249999999998
20
58.887499999999946
0
LWPOLYLINE
5
163
100
AcDbEntity
8
0
100
AcDbPolyline
90
8
70
1
43
0.0
10
-264.46249999999998
20
103.03749999999994
42
-0.41421356237313667
10
-264.96249999999998
20
102.53749999999994
10
-277.96249999999998
20
102.53749999999995
42
-0.41421356237301177
10
-278.46250000000003
20
103.03749999999995
10
-278.46249999999998
20
116.03749999999994
42
-0.41421356237310542
10
-277.96249999999998
20
116.53749999999994
10
-264.96249999999998
20
116.53749999999997
42
-0.41421356237315748
10
-264.46249999999998
20
116.03749999999992
0
LWPOLYLINE
5
164
100
AcDbEntity
8
0
100
AcDbPolyline
90
8
70
1
43
0.0
10
-325.58749999999998
20
83.487499999999883
42
-0.41421356237309503
10
-326.08749999999998
20
83.987499999999926
10
-326.08749999999998
20
96.987499999999926
42
-0.4142135623732407
10
-325.58749999999998
20
97.48749999999994
10
-312.58749999999998
20
97.48749999999994
42
-0.41421356237301177
10
-312.08749999999998
20
96.987499999999926
10
-312.08750000000003
20
83.987499999999926
42
-0.4142135623730222
10
-312.58749999999998
20
83.48749999999994
0
LWPOLYLINE
5
165
100
AcDbEntity
8
0
100
AcDbPolyline
90
8
70
1
43
0.0
10
-270.81875000000002
20
64.437499999999986
42
-0.41421356237315227
10
-271.31875000000002
20
64.937499999999943
10
-271.31875000000002
20
77.937499999999943
42
-0.41421356237298579
10
-270.81875000000002
20
78.437499999999929
10
-257.81875000000008
20
78.437499999999972
42
-0.41421356237314705
10
-257.31875000000002
20
77.937499999999943
10
-257.31874999999997
20
64.937499999999943
42
-0.41421356237310542
10
-257.81875000000008
20
64.437499999999943
0
LWPOLYLINE
5
166
100
AcDbEntity
8
0
100
AcDbPolyline
90
8
70
1
43
0.0
10
-240.65000000000003
20
45.887499999999939
42
-0.41421356237298579
10
-241.15000000000003
20
45.387499999999946
10
-254.14999999999998
20
45.387499999999918
42
-0.41421356237314705
10
-254.65000000000003
20
45.887499999999939
10
-254.65000000000009
20
58.887499999999946
42
-0.41421356237310542
10
-254.14999999999998
20
59.387499999999953
10
-241.15000000000003
20
59.38749999999991
42
-0.41421356237315227
10
-240.65000000000001
20
58.887499999999946
0
LWPOLYLINE
5
167
100
AcDbEntity
8
0
100
AcDbPolyline
90
8
70
1
43
0.0
10
-216.83749999999998
20
103.03749999999995
42
-0.4142135623730846
10
-217.33750000000001
20
102.53749999999995
10
-230.33750000000001
20
102.53749999999994
42
-0.41421356237313667
10
-230.83750000000003
20
103.03749999999994
10
-230.83750000000003
20
116.03749999999994
42
-0.41421356237313667
10
-230.33750000000001
20
116.53749999999994
10
-217.33750000000001
20
116.53749999999991
42
-0.41421356237309503
10
-216.83750000000003
20
116.03749999999994
0
LWPOLYLINE
5
168
100
AcDbEntity
8
0
100
AcDbPolyline
90
8
70
1
43
0.0
10
-307.03750000000002
20
116.03749999999992
42
-0.41421356237311585
10
-306.53750000000002
20
116.53749999999994
10
-293.53750000000002
20
116.53749999999995
42
-0.41421356237310542
10
-293.03750000000002
20
116.03749999999992
10
-293.03750000000002
20
103.03749999999994
42
-0.4142135623730846
10
-293.53750000000002
20
102.53749999999994
10
-306.53750000000002
20
102.53749999999994
42
-0.41421356237301177
10
-307.03750000000002
20
103.03749999999994
0
LWPOLYLINE
5
169
100
AcDbEntity
8
0
100
AcDbPolyline
90
8
70
1
43
0.0
10
-326.08749999999998
20
116.03749999999992
42
-0.41421356237325113
10
-325.58749999999998
20
116.53749999999994
10
-312.58749999999998
20
116.53749999999995
42
-0.41421356237310542
10
-312.08749999999998
20
116.03749999999992
10
-312.08749999999998
20
103.03749999999994
42
-0.4142135623730846
10
-312.58749999999998
20
102.53749999999994
10
-325.58749999999998
20
102.53749999999989
42
-0.41421356237309503
10
-326.08749999999998
20
103.03749999999994
0
LWPOLYLINE
5
170
100
AcDbEntity
8
0
100
AcDbPolyline
90
8
70
1
43
0.0
10
-211.28749999999999
20
83.48749999999994
42
-0.41421356237309503
10
-211.78750000000002
20
83.98749999999994
10
-211.78750000000002
20
96.987499999999926
42
-0.41421356237313667
10
-211.28749999999999
20
97.48749999999994
10
-198.28749999999999
20
97.487499999999955
42
-0.41421356237301177
10
-197.78749999999999
20
96.987499999999955
10
-197.78749999999997
20
83.98749999999994
42
-0.4142135623730846
10
-198.28749999999999
20
83.48749999999994
0
LWPOLYLINE
5
171
100
AcDbEntity
8
0
100
AcDbPolyline
90
8
70
1
43
0.0
10
-344.63749999999999
20
102.53749999999989
42
-0.41421356237309503
10
-345.13750000000005
20
103.03749999999994
10
-345.13750000000005
20
116.03749999999992
42
-0.41421356237325113
10
-344.63749999999999
20
116.53749999999994
10
-331.63750000000005
20
116.53749999999994
42
-0.41421356237294937
10
-331.13750000000005
20
116.03749999999992
10
-331.13749999999993
20
103.03749999999994
42
-0.4142135623732407
10
-331.63749999999999
20
102.53749999999994
0
LWPOLYLINE
5
172
100
AcDbEntity
8
0
100
AcDbPolyline
90
8
70
1
43
0.0
10
-293.53750000000002
20
59.38749999999991
42
-0.41421356237315227
10
-293.03750000000002
20
58.887499999999946
10
-293.03750000000008
20
45.887499999999939
42
-0.41421356237304302
10
-293.53750000000002
20
45.387499999999932
10
-306.53750000000002
20
45.387499999999974
42
-0.41421356237315227
10
-307.03750000000002
20
45.887499999999939
10
-307.03750000000002
20
58.887499999999946
42
-0.41421356237304302
10
-306.53750000000002
20
59.387499999999953
0
LWPOLYLINE
5
173
100
AcDbEntity
8
0
100
AcDbPolyline
90
8
70
1
43
0.0
10
-111.77500000000002
20
39.83749999999997
42
-0.41421356237310025
10
-111.27500000000001
20
40.337499999999977
10
-98.275000000000006
20
40.337499999999984
42
-0.41421356237310025
10
-97.775000000000006
20
39.83749999999997
10
-97.775000000000006
20
26.837499999999963
42
-0.41421356237314183
10
-98.275000000000006
20
26.337499999999974
10
-111.27500000000001
20
26.337499999999959
42
-0.41421356237309243
10
-111.77500000000002
20
26.837499999999963
0
LWPOLYLINE
5
174
100
AcDbEntity
8
0
100
AcDbPolyline
90
8
70
1
43
0.0
10
-179.23750000000001
20
97.487499999999955
42
-0.41421356237309503
10
-178.73750000000001
20
96.987499999999955
10
-178.73750000000001
20
83.98749999999994
42
-0.41421356237312623
10
-179.23750000000001
20
83.487499999999955
10
-192.23750000000001
20
83.48749999999994
42
-0.41421356237301177
10
-192.73750000000004
20
83.98749999999994
10
-192.73750000000007
20
96.987499999999955
42
-0.4142135623730846
10
-192.23750000000001
20
97.487499999999955
0
LWPOLYLINE
5
175
100
AcDbEntity
8
0
100
AcDbPolyline
90
8
70
1
43
0.0
10
-14.931249999999991
20
97.487499999999926
42
-0.41421356237306639
10
-14.43125000000002
20
96.987499999999969
10
-14.431250000000004
20
83.987499999999955
42
-0.41421356237311452
10
-14.931249999999991
20
83.487499999999969
10
-27.931249999999999
20
83.487499999999955
42
-0.41421356237307422
10
-28.431250000000006
20
83.987499999999955
10
-28.431250000000006
20
96.987499999999969
42
-0.41421356237307422
10
-27.931249999999999
20
97.487499999999983
0
LWPOLYLINE
5
176
100
AcDbEntity
8
0
100
AcDbPolyline
90
8
70
1
43
0.0
10
-279.25675000000007
20
62.437499999999915
42
-0.41421356237312623
10
-279.75675000000001
20
62.937499999999943
10
-279.75675000000001
20
76.937499999999943
42
-0.41421356237312101
10
-279.25675000000001
20
77.437499999999929
10
-273.25675000000001
20
77.437499999999901
42
-0.41421356237314705
10
-272.75675000000001
20
76.937499999999943
10
-272.75675000000007
20
62.937499999999943
42
-0.41421356237298579
10
-273.25675000000001
20
62.43749999999995
0
LWPOLYLINE
5
177
100
AcDbEntity
8
0
100
AcDbPolyline
90
8
70
1
43
0.0
10
-5.9932500000000219
20
84.987499999999955
42
-0.41421356237315682
10
-6.4932500000000459
20
84.487499999999969
10
-12.493250000000025
20
84.487499999999983
42
-0.41421356237309115
10
-12.993249999999961
20
84.987499999999955
10
-12.993250000000028
20
98.987499999999955
42
-0.41421356237307161
10
-12.493249999999989
20
99.487499999999969
10
-6.4932500000000459
20
99.487499999999969
42
-0.41421356237307094
10
-5.9932500000000033
20
98.987499999999955
0
LWPOLYLINE
5
178
100
AcDbEntity
8
0
100
AcDbPolyline
90
8
70
1
43
0.0
10
-73.174999999999983
20
26.337499999999991
42
-0.41421356237310542
10
-73.674999999999997
20
26.837499999999963
10
-73.674999999999997
20
39.83749999999997
42
-0.41421356237311324
10
-73.174999999999983
20
40.337499999999977
10
-60.174999999999983
20
40.337499999999984
42
-0.41421356237310025
10
-59.675000000000011
20
39.83749999999997
10
-59.674999999999997
20
26.837499999999963
42
-0.41421356237308204
10
-60.174999999999983
20
26.337499999999974
0
LWPOLYLINE
5
179
100
AcDbEntity
8
0
100
AcDbPolyline
90
8
70
1
43
0.0
10
-159.40000000000003
20
16.024999999999956
42
-0.41421356237308854
10
-158.90000000000001
20
16.524999999999963
10
-145.90000000000001
20
16.52499999999997
42
-0.4142135623730781
10
-145.39999999999998
20
16.024999999999956
10
-145.39999999999998
20
3.0249999999999844
42
-0.41421356237307128
10
-145.90000000000001
20
2.5249999999999417
10
-158.90000000000001
20
2.5249999999999782
42
-0.41421356237309437
10
-159.40000000000001
20
3.0249999999999844
0
LWPOLYLINE
5
180
100
AcDbEntity
8
0
100
AcDbPolyline
90
8
70
1
43
0.0
10
-73.174999999999983
20
2.5249999999999813
42
-0.41421356237310314
10
-73.674999999999997
20
3.0249999999999844
10
-73.674999999999983
20
16.024999999999974
42
-0.4142135623730846
10
-73.174999999999983
20
16.524999999999963
10
-60.174999999999983
20
16.524999999999949
42
-0.41421356237309631
10
-59.675000000000011
20
16.024999999999974
10
-59.674999999999976
20
3.0249999999999844
42
-0.41421356237310314
10
-60.174999999999983
20
2.5249999999999773
0
LWPOLYLINE
5
181
100
AcDbEntity
8
0
100
AcDbPolyline
90
8
70
1
43
0.0
10
-212.07500000000005
20
3.0249999999999488
42
-0.41421356237304235
10
-212.57499999999999
20
2.5249999999999417
10
-225.57500000000002
20
2.5249999999999306
42
-0.41421356237314316
10
-226.07500000000002
20
3.0249999999999488
10
-226.07500000000005
20
16.024999999999956
42
-0.41421356237307422
10
-225.57500000000002
20
16.524999999999963
10
-212.57499999999999
20
16.524999999999949
42
-0.41421356237312884
10
-212.07499999999999
20
16.024999999999956
0
LWPOLYLINE
5
182
100
AcDbEntity
8
0
100
AcDbPolyline
90
8
70
1
43
0.0
10
-212.57499999999999
20
40.337499999999906
42
-0.41421356237314705
10
-212.07499999999999
20
39.837499999999949
10
-212.07500000000005
20
26.837499999999963
42
-0.4142135623730378
10
-212.57499999999999
20
26.337499999999956
10
-225.57499999999999
20
26.337499999999938
42
-0.41421356237314705
10
-226.07500000000002
20
26.837499999999963
10
-226.07500000000005
20
39.837499999999949
42
-0.41421356237311063
10
-225.57500000000002
20
40.337499999999942
0
LWPOLYLINE
5
183
100
AcDbEntity
8
0
100
AcDbPolyline
90
8
70
1
43
0.0
10
-154.63750000000002
20
96.987499999999955
42
-0.41421356237306384
10
-154.13749999999999
20
97.487499999999955
10
-141.13749999999999
20
97.487499999999955
42
-0.4142135623730534
10
-140.63749999999999
20
96.987499999999955
10
-140.63749999999999
20
83.98749999999994
42
-0.41421356237312623
10
-141.13749999999999
20
83.487499999999955
10
-154.13749999999999
20
83.487500000000011
42
-0.41421356237315748
10
-154.63749999999999
20
83.98749999999994
0
LWPOLYLINE
5
184
100
AcDbEntity
8
0
100
AcDbPolyline
90
8
70
1
43
0.0
10
-275.63800000000003
20
42.337499999999899
42
-0.41421356237314705
10
-275.13799999999998
20
41.837499999999949
10
-275.13799999999998
20
27.837499999999942
42
-0.41421356237299878
10
-275.63800000000003
20
27.337499999999952
10
-281.63799999999998
20
27.33749999999992
42
-0.41421356237314444
10
-282.13799999999998
20
27.837499999999942
10
-282.13799999999998
20
41.837499999999949
42
-0.41421356237312101
10
-281.63799999999998
20
42.337499999999935
0
LWPOLYLINE
5
185
100
AcDbEntity
8
0
100
AcDbPolyline
90
8
70
1
43
0.0
10
-41.125000000000007
20
16.524999999999959
42
-0.41421356237312495
10
-40.625
20
16.024999999999974
10
-40.625
20
3.0249999999999844
42
-0.41421356237310314
10
-41.125000000000007
20
2.5249999999999773
10
-54.125000000000014
20
2.5250000000000106
42
-0.41421356237309631
10
-54.624999999999986
20
3.0249999999999844
10
-54.625
20
16.024999999999974
42
-0.4142135623730846
10
-54.125000000000014
20
16.524999999999963
0
LWPOLYLINE
5
186
100
AcDbEntity
8
0
100
AcDbPolyline
90
8
70
1
43
0.0
10
-164.44999999999996
20
3.0249999999999844
42
-0.41421356237306156
10
-164.95000000000002
20
2.5249999999999417
10
-177.94999999999999
20
2.5249999999999515
42
-0.4142135623731516
10
-178.44999999999999
20
3.0249999999999844
10
-178.45000000000002
20
16.024999999999956
42
-0.41421356237307422
10
-177.94999999999999
20
16.524999999999963
10
-164.95000000000005
20
16.524999999999981
42
-0.41421356237314705
10
-164.44999999999999
20
16.024999999999956
0
LWPOLYLINE
5
187
100
AcDbEntity
8
0
100
AcDbPolyline
90
8
70
1
43
0.0
10
-231.625
20
40.337499999999906
42
-0.41421356237314705
10
-231.125
20
39.837499999999949
10
-231.12500000000006
20
26.837499999999945
42
-0.41421356237303258
10
-231.625
20
26.337499999999956
10
-244.62500000000003
20
26.337499999999924
42
-0.41421356237314444
10
-245.12500000000003
20
26.837499999999945
10
-245.12500000000006
20
39.837499999999949
42
-0.41421356237311063
10
-244.62500000000003
20
40.337499999999942
0
LWPOLYLINE
5
188
100
AcDbEntity
8
0
100
AcDbPolyline
90
8
70
1
43
0.0
10
-250.67500000000001
20
16.524999999999949
42
-0.41421356237312884
10
-250.17500000000001
20
16.024999999999956
10
-250.17500000000007
20
3.0249999999999488
42
-0.41421356237304235
10
-250.67500000000001
20
2.5249999999999417
10
-263.67500000000001
20
2.5249999999999306
42
-0.41421356237314316
10
-264.17500000000007
20
3.0249999999999488
10
-264.17500000000007
20
16.024999999999956
42
-0.41421356237307422
10
-263.67500000000001
20
16.524999999999963
0
LWPOLYLINE
5
189
100
AcDbEntity
8
0
100
AcDbPolyline
90
8
70
1
43
0.0
10
-3.0249999999999488
20
16.524999999999963
42
-0.41421356237309437
10
-2.5249999999999773
20
16.024999999999991
10
-2.5249999999999417
20
3.0249999999999844
42
-0.41421356237309437
10
-3.0249999999999488
20
2.5249999999999773
10
-16.024999999999991
20
2.5249999999999408
42
-0.4142135623730957
10
-16.525000000000034
20
3.0249999999999844
10
-16.525000000000002
20
16.024999999999991
42
-0.41421356237308332
10
-16.024999999999991
20
16.524999999999981
0
LWPOLYLINE
5
190
100
AcDbEntity
8
0
100
AcDbPolyline
90
8
70
1
43
0.0
10
-312.08750000000003
20
3.0249999999999488
42
-0.41421356237304235
10
-312.58749999999998
20
2.5249999999999417
10
-325.58749999999998
20
2.5249999999999106
42
-0.41421356237309243
10
-326.08749999999998
20
3.0249999999999488
10
-326.08749999999992
20
16.024999999999956
42
-0.41421356237327711
10
-325.58749999999998
20
16.524999999999945
10
-312.58749999999998
20
16.524999999999931
42
-0.41421356237312884
10
-312.08749999999998
20
16.024999999999938
0
LWPOLYLINE
5
191
100
AcDbEntity
8
0
100
AcDbPolyline
90
8
70
1
43
0.0
10
-251.262
20
27.837499999999942
42
-0.41421356237299878
10
-251.762
20
27.337499999999952
10
-257.76200000000006
20
27.337499999999917
42
-0.41421356237310542
10
-258.26200000000006
20
27.837499999999942
10
-258.262
20
41.837499999999949
42
-0.41421356237298579
10
-257.76200000000006
20
42.337499999999935
10
-251.762
20
42.337499999999899
42
-0.41421356237314705
10
-251.262
20
41.837499999999949
0
LWPOLYLINE
5
192
100
AcDbEntity
8
0
100
AcDbPolyline
90
8
70
1
43
0.0
10
-50.150000000000006
20
45.887499999999974
42
-0.41421356237311585
10
-50.650000000000013
20
45.387499999999967
10
-63.65000000000002
20
45.387499999999989
42
-0.41421356237310542
10
-64.149999999999991
20
45.887499999999974
10
-64.150000000000006
20
58.887499999999982
42
-0.41421356237307422
10
-63.65000000000002
20
59.387499999999974
10
-50.650000000000013
20
59.387499999999946
42
-0.41421356237310025
10
-50.150000000000006
20
58.887499999999982
0
LWPOLYLINE
5
193
100
AcDbEntity
8
0
100
AcDbPolyline
90
8
70
1
43
0.0
10
-49.862500000000018
20
77.937499999999957
42
-0.41421356237311585
10
-49.362500000000011
20
78.437499999999972
10
-36.362500000000004
20
78.437499999999972
42
-0.41421356237310025
10
-35.862499999999997
20
77.937499999999957
10
-35.862499999999983
20
64.937499999999972
42
-0.41421356237313406
10
-36.362500000000004
20
64.437499999999972
10
-49.362500000000011
20
64.4375
42
-0.41421356237310542
10
-49.862499999999983
20
64.937499999999972
0
LWPOLYLINE
5
194
100
AcDbEntity
8
0
100
AcDbPolyline
90
8
70
1
43
0.0
10
-7.7874999999999872
20
59.387499999999932
42
-0.41421356237305473
10
-7.2875000000000512
20
58.887499999999982
10
-7.2875000000000201
20
45.887499999999974
42
-0.41421356237310281
10
-7.7875000000000227
20
45.387499999999967
10
-20.787499999999994
20
45.387500000000003
42
-0.41421356237310281
10
-21.287499999999966
20
45.887499999999974
10
-21.287499999999994
20
58.887499999999982
42
-0.41421356237310025
10
-20.787499999999994
20
59.387499999999989
0
LWPOLYLINE
5
195
100
AcDbEntity
8
0
100
AcDbPolyline
90
8
70
1
43
0.0
10
-55.412500000000016
20
78.437499999999972
42
-0.41421356237311585
10
-54.912500000000009
20
77.937499999999957
10
-54.912500000000023
20
64.937499999999972
42
-0.41421356237307422
10
-55.412500000000016
20
64.437499999999972
10
-68.412499999999994
20
64.4375
42
-0.41421356237310025
10
-68.912499999999994
20
64.937499999999972
10
-68.912499999999994
20
77.937499999999957
42
-0.41421356237311585
10
-68.412499999999994
20
78.437499999999972
0
LWPOLYLINE
5
196
100
AcDbEntity
8
0
100
AcDbPolyline
90
8
70
1
43
0.0
10
-312.08750000000003
20
26.837499999999945
42
-0.4142135623730378
10
-312.58749999999998
20
26.337499999999938
10
-325.58749999999998
20
26.337500000000006
42
-0.41421356237299356
10
-326.08749999999992
20
26.837499999999945
10
-326.08749999999992
20
39.837499999999935
42
-0.41421356237327711
10
-325.58749999999998
20
40.337499999999942
10
-312.58749999999998
20
40.337499999999899
42
-0.41421356237315227
10
-312.08749999999998
20
39.837499999999935
0
LWPOLYLINE
5
197
100
AcDbEntity
8
0
100
AcDbPolyline
90
8
70
1
43
0.0
10
-293.03750000000008
20
26.837499999999945
42
-0.41421356237303258
10
-293.53750000000002
20
26.337499999999956
10
-306.53750000000002
20
26.33749999999992
42
-0.41421356237310542
10
-307.03750000000002
20
26.837499999999945
10
-307.03750000000008
20
39.837499999999935
42
-0.4142135623730846
10
-306.53750000000002
20
40.337499999999942
10
-293.53750000000002
20
40.337499999999899
42
-0.41421356237315227
10
-293.03750000000002
20
39.837499999999935
0
LWPOLYLINE
5
198
100
AcDbEntity
8
0
100
AcDbPolyline
90
8
70
1
43
0.0
10
-203.05000000000001
20
59.387499999999996
42
-0.41421356237308982
10
-202.55000000000001
20
58.88749999999996
10
-202.54999999999995
20
45.88749999999996
42
-0.41421356237315748
10
-203.05000000000007
20
45.387499999999967
10
-216.05000000000004
20
45.387499999999903
42
-0.41421356237304818
10
-216.55000000000001
20
45.887499999999939
10
-216.55000000000001
20
58.887499999999946
42
-0.41421356237299095
10
-216.05000000000004
20
59.387499999999953
0
LWPOLYLINE
5
199
100
AcDbEntity
8
0
100
AcDbPolyline
90
8
70
1
43
0.0
10
-222.10000000000002
20
59.38749999999991
42
-0.41421356237315227
10
-221.59999999999999
20
58.887499999999946
10
-221.60000000000002
20
45.887499999999939
42
-0.41421356237298579
10
-222.10000000000002
20
45.387499999999946
10
-235.09999999999997
20
45.387499999999918
42
-0.41421356237314705
10
-235.60000000000002
20
45.887499999999939
10
-235.60000000000008
20
58.887499999999946
42
-0.41421356237310542
10
-235.09999999999997
20
59.387499999999953
0
LWPOLYLINE
5
200
100
AcDbEntity
8
0
100
AcDbPolyline
90
8
70
1
43
0.0
10
-23.66874999999996
20
77.937499999999957
42
-0.41421356237310025
10
-23.16874999999996
20
78.437499999999972
10
-5.4062499999999858
20
78.437499999999943
42
-0.41421356237309631
10
-4.9062500000000142
20
77.937499999999972
10
-4.9062499999999956
20
64.937499999999972
42
-0.41421356237308526
10
-5.4062499999999858
20
64.437499999999972
10
-23.16874999999996
20
64.4375
42
-0.41421356237314444
10
-23.668750000000003
20
64.937499999999972
0
LWPOLYLINE
5
201
100
AcDbEntity
8
0
100
AcDbPolyline
90
8
70
1
43
0.0
10
-68.412499999999994
20
102.53749999999999
42
-0.41421356237313145
10
-68.912499999999994
20
103.03749999999997
10
-68.912500000000009
20
116.03749999999994
42
-0.41421356237310025
10
-68.412499999999994
20
116.53749999999995
10
-55.412500000000016
20
116.53749999999995
42
-0.41421356237311063
10
-54.912500000000009
20
116.03749999999997
10
-54.912500000000016
20
103.03749999999997
42
-0.414213562373069
10
-55.412500000000016
20
102.53749999999997
0
LWPOLYLINE
5
202
100
AcDbEntity
8
0
100
AcDbPolyline
90
8
70
1
43
0.0
10
-207.8125
20
78.437499999999886
42
-0.41421356237314705
10
-207.3125
20
77.937499999999943
10
-207.31250000000003
20
64.937499999999943
42
-0.41421356237299095
10
-207.8125
20
64.437499999999943
10
-220.81249999999997
20
64.437499999999886
42
-0.41421356237312623
10
-221.3125
20
64.937499999999943
10
-221.31250000000006
20
77.937499999999943
42
-0.41421356237307944
10
-220.8125
20
78.437499999999943
0
LWPOLYLINE
5
203
100
AcDbEntity
8
0
100
AcDbPolyline
90
8
70
1
43
0.0
10
-77.9375
20
83.487499999999983
42
-0.41421356237313145
10
-78.4375
20
83.987499999999955
10
-78.4375
20
96.987499999999969
42
-0.4142135623730534
10
-77.9375
20
97.487499999999983
10
-64.937499999999986
20
97.487499999999955
42
-0.41421356237306384
10
-64.437500000000014
20
96.987499999999969
10
-64.4375
20
83.987499999999955
42
-0.41421356237311063
10
-64.937499999999986
20
83.487499999999969
0
LWPOLYLINE
5
204
100
AcDbEntity
8
0
100
AcDbPolyline
90
8
70
1
43
0.0
10
-331.13750000000005
20
26.837499999999928
42
-0.4142135623732745
10
-331.63749999999999
20
26.337499999999938
10
-344.63749999999999
20
26.337499999999984
42
-0.41421356237310025
10
-345.13749999999993
20
26.837499999999963
10
-345.13750000000005
20
39.837499999999935
42
-0.41421356237321988
10
-344.63749999999999
20
40.337499999999942
10
-331.63750000000005
20
40.337499999999871
42
-0.41421356237299095
10
-331.13750000000005
20
39.837499999999935
0
LWPOLYLINE
5
205
100
AcDbEntity
8
0
100
AcDbPolyline
90
8
70
1
43
0.0
10
-29.869249999999997
20
84.987499999999955
42
-0.41421356237307161
10
-30.369250000000001
20
84.487499999999955
10
-36.36924999999998
20
84.487499999999955
42
-0.4142135623731783
10
-36.869250000000022
20
84.987499999999955
10
-36.869250000000029
20
98.987499999999983
42
-0.41421356237306639
10
-36.36924999999998
20
99.487499999999969
10
-30.369250000000001
20
99.487499999999926
42
-0.41421356237313145
10
-29.869249999999994
20
98.987499999999955
0
LWPOLYLINE
5
206
100
AcDbEntity
8
0
100
AcDbPolyline
90
8
70
1
43
0.0
10
-331.13749999999993
20
45.887499999999939
42
-0.41421356237321988
10
-331.63749999999999
20
45.387499999999932
10
-344.63749999999999
20
45.387499999999903
42
-0.41421356237311063
10
-345.13750000000005
20
45.887499999999974
10
-345.13750000000005
20
58.887499999999946
42
-0.41421356237321988
10
-344.63749999999999
20
59.387499999999953
10
-331.63750000000005
20
59.387499999999882
42
-0.41421356237299095
10
-331.13750000000005
20
58.887499999999946
0
LWPOLYLINE
5
207
100
AcDbEntity
8
0
100
AcDbPolyline
90
8
70
1
43
0.0
10
-45.387499999999967
20
83.98749999999994
42
-0.41421356237311585
10
-45.88750000000001
20
83.487499999999969
10
-58.887500000000017
20
83.487499999999983
42
-0.41421356237310025
10
-59.387499999999989
20
83.987499999999955
10
-59.387500000000024
20
96.987499999999983
42
-0.41421356237304302
10
-58.887500000000017
20
97.487499999999983
10
-45.88750000000001
20
97.48749999999994
42
-0.41421356237313145
10
-45.387500000000003
20
96.987499999999969
0
LWPOLYLINE
5
208
100
AcDbEntity
8
0
100
AcDbPolyline
90
8
70
1
43
0.0
10
-273.70000000000005
20
39.837499999999949
42
-0.41421356237312623
10
-273.19999999999999
20
40.337499999999942
10
-260.19999999999999
20
40.337499999999949
42
-0.41421356237314183
10
-259.69999999999999
20
39.837499999999935
10
-259.69999999999999
20
26.837499999999945
42
-0.41421356237313667
10
-260.19999999999999
20
26.337499999999956
10
-273.19999999999999
20
26.33749999999992
42
-0.41421356237310542
10
-273.69999999999999
20
26.837499999999945
0
LWPOLYLINE
5
209
100
AcDbEntity
8
0
100
AcDbPolyline
90
8
70
1
43
0.0
10
-135.08749999999998
20
83.487499999999955
42
-0.41421356237304302
10
-135.58750000000003
20
83.98749999999994
10
-135.58750000000003
20
96.987499999999969
42
-0.41421356237307422
10
-135.08749999999998
20
97.487499999999983
10
-122.08750000000002
20
97.487499999999955
42
-0.4142135623730534
10
-121.58750000000001
20
96.987499999999955
10
-121.58750000000001
20
83.98749999999994
42
-0.41421356237312623
10
-122.08750000000002
20
83.487499999999955
0
LWPOLYLINE
5
210
100
AcDbEntity
8
0
100
AcDbPolyline
90
8
70
1
43
0.0
10
-182.71250000000003
20
64.437499999999986
42
-0.41421356237315227
10
-183.21250000000003
20
64.937499999999943
10
-183.21249999999998
20
77.937499999999957
42
-0.41421356237298579
10
-182.71250000000003
20
78.437499999999943
10
-169.71250000000003
20
78.437499999999986
42
-0.41421356237314705
10
-169.21250000000001
20
77.937499999999957
10
-169.21249999999992
20
64.937499999999943
42
-0.41421356237310025
10
-169.71250000000001
20
64.437499999999943
0
LWPOLYLINE
5
211
100
AcDbEntity
8
0
100
AcDbPolyline
90
8
70
1
43
0.0
10
-206.52500000000003
20
26.337499999999938
42
-0.41421356237310542
10
-207.02500000000003
20
26.837499999999963
10
-207.02500000000009
20
39.837499999999949
42
-0.41421356237310542
10
-206.52500000000001
20
40.337499999999963
10
-193.52500000000003
20
40.33749999999997
42
-0.41421356237314183
10
-193.02500000000003
20
39.837499999999949
10
-193.02500000000003
20
26.837499999999963
42
-0.41421356237313667
10
-193.52500000000003
20
26.337499999999956
0
LWPOLYLINE
5
212
100
AcDbEntity
8
0
100
AcDbPolyline
90
8
70
1
43
0.0
10
-92.224999999999994
20
2.524999999999975
42
-0.41421356237313794
10
-92.725000000000009
20
3.0249999999999844
10
-92.725000000000023
20
16.024999999999974
42
-0.41421356237309892
10
-92.224999999999994
20
16.524999999999963
10
-79.224999999999994
20
16.524999999999981
42
-0.41421356237310542
10
-78.724999999999994
20
16.024999999999974
10
-78.724999999999994
20
3.0249999999999844
42
-0.41421356237310314
10
-79.224999999999994
20
2.5249999999999773
0
LWPOLYLINE
5
213
100
AcDbEntity
8
0
100
AcDbPolyline
90
8
70
1
43
0.0
10
-197.00000000000003
20
45.387499999999925
42
-0.41421356237304818
10
-197.5
20
45.88749999999996
10
-197.49999999999997
20
58.88749999999996
42
-0.4142135623730378
10
-197.00000000000003
20
59.387499999999953
10
-184.00000000000003
20
59.387499999999982
42
-0.41421356237314183
10
-183.5
20
58.88749999999996
10
-183.49999999999994
20
45.88749999999996
42
-0.41421356237315748
10
-184.00000000000006
20
45.387499999999967
0
LWPOLYLINE
5
214
100
AcDbEntity
8
0
100
AcDbPolyline
90
8
70
1
43
0.0
10
-173.68750000000006
20
96.987499999999955
42
-0.4142135623730846
10
-173.1875
20
97.487499999999955
10
-160.18749999999997
20
97.48749999999994
42
-0.41421356237306384
10
-159.6875
20
96.987499999999955
10
-159.6875
20
83.98749999999994
42
-0.41421356237312623
10
-160.1875
20
83.487499999999955
10
-173.1875
20
83.48749999999994
42
-0.41421356237301177
10
-173.68750000000003
20
83.98749999999994
0
LWPOLYLINE
5
215
100
AcDbEntity
8
0
100
AcDbPolyline
90
8
70
1
43
0.0
10
-159.40000000000001
20
58.88749999999996
42
-0.41421356237315227
10
-158.90000000000001
20
59.387499999999953
10
-145.90000000000001
20
59.387499999999982
42
-0.41421356237312101
10
-145.39999999999998
20
58.88749999999996
10
-145.40000000000003
20
45.88749999999996
42
-0.41421356237307944
10
-145.90000000000001
20
45.387499999999967
10
-158.90000000000001
20
45.387499999999939
42
-0.41421356237310025
10
-159.40000000000001
20
45.88749999999996
0
LWPOLYLINE
5
216
100
AcDbEntity
8
0
100
AcDbPolyline
90
8
70
1
43
0.0
10
-117.32500000000002
20
40.337499999999984
42
-0.41421356237310025
10
-116.82500000000002
20
39.83749999999997
10
-116.82500000000002
20
26.837499999999963
42
-0.41421356237314183
10
-117.32500000000002
20
26.337499999999974
10
-130.32499999999999
20
26.337499999999959
42
-0.41421356237309243
10
-130.82499999999999
20
26.837499999999963
10
-130.82499999999999
20
39.83749999999997
42
-0.41421356237310025
10
-130.32499999999999
20
40.337499999999977
0
LWPOLYLINE
5
217
100
AcDbEntity
8
0
100
AcDbPolyline
90
8
70
1
43
0.0
10
-174.47500000000002
20
40.33749999999997
42
-0.41421356237314183
10
-173.97500000000002
20
39.837499999999949
10
-173.97500000000002
20
26.837499999999963
42
-0.41421356237313667
10
-174.47500000000002
20
26.337499999999956
10
-187.47499999999997
20
26.337499999999938
42
-0.41421356237314705
10
-187.97499999999999
20
26.837499999999963
10
-187.97500000000002
20
39.83749999999997
42
-0.41421356237311063
10
-187.47499999999999
20
40.337499999999963
0
LWPOLYLINE
5
218
100
AcDbEntity
8
0
100
AcDbPolyline
90
8
70
1
43
0.0
10
-139.84999999999999
20
45.387499999999939
42
-0.41421356237310025
10
-140.34999999999999
20
45.88749999999996
10
-140.35000000000002
20
58.88749999999996
42
-0.41421356237312101
10
-139.84999999999999
20
59.387499999999974
10
-126.84999999999999
20
59.387500000000017
42
-0.414213562373069
10
-126.34999999999998
20
58.887499999999982
10
-126.35000000000002
20
45.887499999999974
42
-0.41421356237310025
10
-126.85000000000002
20
45.387499999999967
0
LWPOLYLINE
5
219
100
AcDbEntity
8
0
100
AcDbPolyline
90
8
70
1
43
0.0
10
-149.875
20
39.83749999999997
42
-0.41421356237310802
10
-149.375
20
40.337499999999963
10
-136.375
20
40.337499999999963
42
-0.41421356237306639
10
-135.875
20
39.83749999999997
10
-135.87500000000003
20
26.837499999999963
42
-0.41421356237307161
10
-136.375
20
26.337499999999956
10
-149.375
20
26.337499999999959
42
-0.41421356237309243
10
-149.875
20
26.837499999999963
0
LWPOLYLINE
5
220
100
AcDbEntity
8
0
100
AcDbPolyline
90
8
70
1
43
0.0
10
-149.875
20
116.03749999999994
42
-0.41421356237309503
10
-149.375
20
116.53749999999995
10
-136.37500000000003
20
116.53749999999995
42
-0.41421356237310542
10
-135.87500000000003
20
116.03749999999997
10
-135.875
20
103.03749999999997
42
-0.41421356237307422
10
-136.37500000000003
20
102.53749999999997
10
-149.375
20
102.53749999999997
42
-0.41421356237310542
10
-149.875
20
103.03749999999995
0
LWPOLYLINE
5
221
100
AcDbEntity
8
0
100
AcDbPolyline
90
8
70
1
43
0.0
10
-154.92500000000004
20
26.837499999999963
42
-0.41421356237307161
10
-155.42500000000001
20
26.337499999999956
10
-168.42500000000001
20
26.337499999999938
42
-0.41421356237310542
10
-168.92500000000001
20
26.837499999999963
10
-168.92500000000007
20
39.83749999999997
42
-0.41421356237312623
10
-168.42499999999998
20
40.337499999999963
10
-155.42500000000001
20
40.337499999999963
42
-0.41421356237306639
10
-154.92500000000001
20
39.83749999999997
0
LWPOLYLINE
5
222
100
AcDbEntity
8
0
100
AcDbPolyline
90
8
70
1
43
0.0
10
-102.25000000000006
20
58.887499999999982
42
-0.41421356237313145
10
-101.75
20
59.387499999999974
10
-88.75
20
59.387499999999918
42
-0.41421356237311585
10
-88.250000000000028
20
58.887499999999982
10
-88.25
20
45.887499999999974
42
-0.41421356237314183
10
-88.75
20
45.387499999999967
10
-101.75
20
45.38749999999996
42
-0.41421356237310025
10
-102.25000000000001
20
45.887499999999974
0
LWPOLYLINE
5
223
100
AcDbEntity
8
0
100
AcDbPolyline
90
8
70
1
43
0.0
10
-93.512500000000003
20
78.437499999999972
42
-0.41421356237310025
10
-93.012499999999989
20
77.937499999999957
10
-93.01249999999996
20
64.937499999999943
42
-0.41421356237313145
10
-93.512500000000003
20
64.437499999999957
10
-106.51250000000002
20
64.437499999999929
42
-0.41421356237310025
10
-107.01250000000002
20
64.937499999999943
10
-107.01250000000002
20
77.937499999999957
42
-0.41421356237310025
10
-106.51250000000002
20
78.437499999999972
0
LWPOLYLINE
5
224
100
AcDbEntity
8
0
100
AcDbPolyline
90
8
70
1
43
0.0
10
-69.200000000000003
20
45.887499999999974
42
-0.41421356237311585
10
-69.699999999999989
20
45.387499999999967
10
-82.700000000000031
20
45.387499999999996
42
-0.41421356237310025
10
-83.200000000000003
20
45.887499999999974
10
-83.200000000000003
20
58.887499999999982
42
-0.41421356237307944
10
-82.700000000000031
20
59.387499999999974
10
-69.699999999999989
20
59.387499999999953
42
-0.41421356237310542
10
-69.200000000000017
20
58.887499999999982
0
LWPOLYLINE
5
225
100
AcDbEntity
8
0
100
AcDbPolyline
90
8
70
1
43
0.0
10
-145.11250000000001
20
77.937499999999957
42
-0.41421356237311063
10
-144.61250000000001
20
78.437499999999943
10
-131.61250000000001
20
78.437499999999972
42
-0.41421356237310025
10
-131.11250000000001
20
77.937499999999957
10
-131.11250000000001
20
64.937499999999943
42
-0.41421356237315227
10
-131.61250000000001
20
64.437499999999957
10
-144.61250000000004
20
64.437499999999957
42
-0.414213562373069
10
-145.11250000000001
20
64.937499999999943
0
LWPOLYLINE
5
226
100
AcDbEntity
8
0
100
AcDbPolyline
90
8
70
1
43
0.0
10
-183.49999999999997
20
3.0249999999999844
42
-0.41421356237306156
10
-184.00000000000003
20
2.5249999999999417
10
-197.00000000000003
20
2.5249999999999511
42
-0.4142135623731103
10
-197.50000000000003
20
3.0249999999999844
10
-197.5
20
16.024999999999956
42
-0.41421356237298185
10
-197.00000000000003
20
16.524999999999963
10
-184.00000000000006
20
16.524999999999981
42
-0.41421356237314705
10
-183.5
20
16.024999999999956
0
LWPOLYLINE
5
227
100
AcDbEntity
8
0
100
AcDbPolyline
90
8
70
1
43
0.0
10
-121.29999999999998
20
58.887499999999982
42
-0.4142135623730846
10
-120.79999999999998
20
59.387499999999974
10
-107.80000000000001
20
59.387499999999996
42
-0.41421356237310025
10
-107.30000000000001
20
58.887499999999982
10
-107.30000000000001
20
45.887499999999974
42
-0.41421356237314183
10
-107.80000000000001
20
45.387499999999967
10
-120.80000000000001
20
45.387499999999925
42
-0.41421356237307944
10
-121.30000000000003
20
45.887499999999974
0
LWPOLYLINE
5
228
100
AcDbEntity
8
0
100
AcDbPolyline
90
8
70
1
43
0.0
10
-78.725000000000009
20
26.837499999999963
42
-0.41421356237308204
10
-79.224999999999994
20
26.337499999999974
10
-92.224999999999994
20
26.337499999999984
42
-0.41421356237314183
10
-92.725000000000009
20
26.837499999999963
10
-92.725000000000009
20
39.83749999999997
42
-0.41421356237310025
10
-92.224999999999994
20
40.337499999999977
10
-79.224999999999994
20
40.337500000000006
42
-0.41421356237311063
10
-78.724999999999994
20
39.83749999999997
0
LWPOLYLINE
5
229
100
AcDbEntity
8
0
100
AcDbPolyline
90
8
70
1
43
0.0
10
-164.95000000000002
20
59.387499999999982
42
-0.41421356237314183
10
-164.44999999999999
20
58.88749999999996
10
-164.44999999999993
20
45.88749999999996
42
-0.41421356237315748
10
-164.95000000000005
20
45.387499999999967
10
-177.94999999999999
20
45.387499999999939
42
-0.41421356237314183
10
-178.44999999999999
20
45.88749999999996
10
-178.45000000000005
20
58.88749999999996
42
-0.41421356237315748
10
-177.94999999999993
20
59.387499999999953
0
LWPOLYLINE
5
230
100
AcDbEntity
8
0
100
AcDbPolyline
90
8
70
1
43
0.0
10
-112.56250000000001
20
78.437499999999972
42
-0.41421356237310025
10
-112.0625
20
77.937499999999957
10
-112.06249999999997
20
64.937499999999943
42
-0.41421356237313145
10
-112.56250000000001
20
64.437499999999957
10
-125.56250000000003
20
64.437499999999915
42
-0.414213562373069
10
-126.06250000000003
20
64.937499999999943
10
-126.0625
20
77.937499999999957
42
-0.41421356237311063
10
-125.56249999999999
20
78.437499999999943
0
LWPOLYLINE
5
231
100
AcDbEntity
8
0
100
AcDbPolyline
90
8
70
1
43
0.0
10
-164.16249999999997
20
77.937499999999957
42
-0.41421356237298579
10
-163.66250000000002
20
78.437499999999943
10
-150.66249999999999
20
78.437499999999972
42
-0.41421356237310025
10
-150.16249999999999
20
77.937499999999957
10
-150.16249999999997
20
64.937499999999943
42
-0.41421356237312101
10
-150.66249999999999
20
64.437499999999943
10
-163.66250000000002
20
64.437499999999986
42
-0.41421356237315227
10
-164.16250000000002
20
64.937499999999943
0
LWPOLYLINE
5
232
100
AcDbEntity
8
0
100
AcDbPolyline
90
8
70
1
43
0.0
10
-54.625000000000021
20
39.83749999999997
42
-0.41421356237311324
10
-54.125000000000014
20
40.337499999999977
10
-41.125000000000007
20
40.337499999999963
42
-0.41421356237314444
10
-40.625
20
39.83749999999997
10
-40.625
20
26.837499999999963
42
-0.41421356237308721
10
-41.125000000000007
20
26.337499999999974
10
-54.125000000000014
20
26.337499999999995
42
-0.41421356237310281
10
-54.624999999999986
20
26.837499999999963
0
LWPOLYLINE
5
233
100
AcDbEntity
8
0
100
AcDbPolyline
90
8
70
1
43
0.0
10
-140.35000000000002
20
16.024999999999974
42
-0.41421356237307161
10
-139.84999999999999
20
16.524999999999963
10
-126.85000000000002
20
16.524999999999988
42
-0.41421356237306772
10
-126.34999999999998
20
16.024999999999956
10
-126.35000000000002
20
3.0249999999999844
42
-0.41421356237307388
10
-126.84999999999999
20
2.5249999999999773
10
-139.84999999999999
20
2.5249999999999782
42
-0.41421356237309437
10
-140.34999999999999
20
3.0249999999999844
0
ENDSEC
0
SECTION
2
OBJECTS
0
DICTIONARY
5
C
100
AcDbDictionary
3
ACAD_GROUP
350
D
3
ACAD_MLINESTYLE
350
17
0
DICTIONARY
5
D
100
AcDbDictionary
0
DICTIONARY
5
1A
330
C
100
AcDbDictionary
0
DICTIONARY
5
17
100
AcDbDictionary
0
ENDSEC
0
EOF
